<?xml version="1.0" encoding="utf-8"?>
<!-- Generator: Adobe Illustrator 15.0.0, SVG Export Plug-In . SVG Version: 6.00 Build 0)  -->
<!DOCTYPE svg PUBLIC "-//W3C//DTD SVG 1.1//EN" "http://www.w3.org/Graphics/SVG/1.1/DTD/svg11.dtd">
<svg version="1.1" xmlns="http://www.w3.org/2000/svg" xmlns:xlink="http://www.w3.org/1999/xlink" x="0px" y="0px"
	 width="203.333px" height="209.333px" viewBox="0 0 203.333 209.333" enable-background="new 0 0 203.333 209.333"
	 xml:space="preserve">
<g id="Backgrounds" display="none">
	<rect id="Dark_background" fill="#292424" width="203.333" height="209.333"/>
	<rect id="Light_background" fill="#FFFFFF" width="203.333" height="209.333"/>
</g>
<g id="Layer_1">
	<g id="Text_1_">
		<g id="aerial_robotics_team_1_">
			<path fill="#726658" d="M46.933,170.081c-0.035-0.075-0.062-0.154-0.085-0.231c-0.026-0.084-0.046-0.159-0.06-0.241
				c-0.144,0.169-0.319,0.304-0.526,0.403c-0.206,0.104-0.442,0.154-0.709,0.154c-0.44,0-0.791-0.119-1.049-0.359
				c-0.258-0.238-0.388-0.564-0.388-0.979c0-0.419,0.169-0.745,0.505-0.978c0.341-0.229,0.835-0.343,1.489-0.343h0.62v-0.44
				c0-0.216-0.063-0.384-0.187-0.502c-0.126-0.12-0.311-0.183-0.552-0.183c-0.14,0-0.262,0.018-0.372,0.049
				c-0.106,0.03-0.194,0.07-0.261,0.113l-0.079,0.482h-0.914l0.005-0.996c0.22-0.149,0.473-0.276,0.761-0.379
				c0.287-0.103,0.6-0.153,0.936-0.153c0.559,0,1.012,0.138,1.359,0.411c0.348,0.271,0.52,0.659,0.52,1.162v1.859
				c0,0.069,0.002,0.134,0.004,0.196c0.002,0.061,0.005,0.119,0.013,0.175l0.37,0.051v0.728H46.933z M45.882,169.269
				c0.183,0,0.349-0.038,0.5-0.117c0.149-0.08,0.265-0.18,0.348-0.298v-0.687h-0.62c-0.257,0-0.452,0.059-0.586,0.181
				c-0.133,0.121-0.198,0.265-0.198,0.434c0,0.153,0.049,0.274,0.147,0.356C45.572,169.229,45.707,169.269,45.882,169.269"/>
			<path fill="#726658" d="M51.112,170.166c-0.649,0-1.167-0.205-1.556-0.623c-0.388-0.417-0.581-0.945-0.581-1.583v-0.165
				c0-0.668,0.184-1.219,0.549-1.654c0.368-0.429,0.86-0.645,1.479-0.642c0.607,0,1.08,0.183,1.413,0.548
				c0.335,0.365,0.503,0.858,0.503,1.485v0.657h-2.687l-0.007,0.024c0.022,0.3,0.12,0.543,0.297,0.734
				c0.176,0.189,0.414,0.287,0.717,0.287c0.269,0,0.492-0.026,0.669-0.082c0.178-0.054,0.371-0.14,0.582-0.256l0.328,0.747
				c-0.185,0.151-0.427,0.271-0.72,0.374C51.802,170.118,51.475,170.166,51.112,170.166 M51.003,166.436
				c-0.224,0-0.401,0.083-0.53,0.255c-0.132,0.174-0.213,0.398-0.243,0.676l0.013,0.024h1.488v-0.108
				c0-0.257-0.062-0.464-0.18-0.617C51.429,166.512,51.247,166.436,51.003,166.436"/>
			<path fill="#726658" d="M53.797,169.354l0.583-0.125v-2.791l-0.645-0.124v-0.729h1.775l0.053,0.655
				c0.105-0.234,0.242-0.414,0.407-0.547c0.167-0.128,0.359-0.193,0.578-0.193c0.063,0,0.131,0.005,0.201,0.015
				c0.071,0.007,0.129,0.02,0.176,0.035l-0.127,1.107l-0.5-0.015c-0.177,0-0.324,0.036-0.44,0.104
				c-0.116,0.071-0.206,0.167-0.266,0.295v2.188l0.583,0.125v0.728h-2.378V169.354z"/>
			<path fill="#726658" d="M57.464,169.354l0.586-0.125v-2.791l-0.648-0.124v-0.729h1.862v3.645l0.58,0.125v0.728h-2.38V169.354z
				 M59.264,164.505H58.05v-0.909h1.214V164.505z"/>
			<path fill="#726658" d="M63.32,170.081c-0.034-0.075-0.062-0.154-0.087-0.231c-0.025-0.084-0.045-0.159-0.059-0.241
				c-0.146,0.169-0.32,0.304-0.526,0.403c-0.204,0.104-0.442,0.154-0.708,0.154c-0.441,0-0.791-0.119-1.049-0.359
				c-0.258-0.238-0.389-0.564-0.389-0.979c0-0.419,0.17-0.745,0.507-0.978c0.339-0.229,0.834-0.343,1.487-0.343h0.62v-0.44
				c0-0.216-0.062-0.384-0.187-0.502c-0.124-0.12-0.308-0.183-0.552-0.183c-0.14,0-0.264,0.018-0.37,0.049
				c-0.109,0.03-0.195,0.07-0.261,0.113l-0.08,0.482h-0.915l0.005-0.996c0.222-0.149,0.476-0.276,0.763-0.379
				c0.285-0.103,0.598-0.153,0.937-0.153c0.556,0,1.009,0.138,1.356,0.411c0.348,0.271,0.521,0.659,0.521,1.162v1.859
				c0,0.069,0,0.134,0.002,0.196c0.002,0.061,0.007,0.119,0.016,0.175l0.37,0.051v0.728H63.32z M62.268,169.269
				c0.184,0,0.35-0.038,0.499-0.117c0.149-0.08,0.266-0.18,0.349-0.298v-0.687h-0.62c-0.257,0-0.451,0.059-0.585,0.181
				c-0.132,0.121-0.199,0.265-0.199,0.434c0,0.153,0.049,0.274,0.146,0.356C61.958,169.229,62.095,169.269,62.268,169.269"/>
			<polygon fill="#726658" points="65.217,164.325 65.217,163.596 67.081,163.596 67.081,169.229 67.667,169.354 67.667,170.081 
				65.279,170.081 65.279,169.354 65.865,169.229 65.865,164.455 			"/>
			<path fill="#726658" d="M70.661,169.354l0.582-0.125v-2.791l-0.643-0.124v-0.729h1.774l0.055,0.655
				c0.104-0.234,0.24-0.414,0.407-0.547c0.166-0.128,0.36-0.193,0.576-0.193c0.066,0,0.132,0.005,0.204,0.015
				c0.072,0.007,0.13,0.02,0.177,0.035l-0.128,1.107l-0.501-0.015c-0.176,0-0.322,0.036-0.438,0.104
				c-0.116,0.071-0.205,0.167-0.267,0.295v2.188l0.583,0.125v0.728h-2.379V169.354z"/>
			<path fill="#726658" d="M74.284,167.789c0-0.673,0.187-1.22,0.563-1.648c0.376-0.428,0.894-0.642,1.556-0.642
				c0.666,0,1.185,0.214,1.56,0.638c0.376,0.43,0.565,0.979,0.565,1.652v0.088c0,0.677-0.189,1.227-0.565,1.65
				c-0.375,0.426-0.893,0.639-1.551,0.639c-0.667,0-1.188-0.213-1.564-0.639c-0.376-0.424-0.563-0.974-0.563-1.65V167.789z
				 M75.497,167.877c0,0.409,0.074,0.739,0.218,0.987c0.142,0.248,0.378,0.371,0.697,0.371c0.313,0,0.543-0.123,0.687-0.373
				c0.146-0.251,0.22-0.578,0.22-0.985v-0.088c0-0.398-0.075-0.724-0.221-0.978c-0.146-0.251-0.378-0.376-0.694-0.376
				c-0.313,0-0.547,0.125-0.689,0.376c-0.144,0.254-0.218,0.579-0.218,0.978V167.877z"/>
			<path fill="#726658" d="M83.613,167.955c0,0.671-0.147,1.207-0.448,1.609c-0.298,0.4-0.732,0.602-1.297,0.602
				c-0.263,0-0.491-0.054-0.687-0.164c-0.193-0.111-0.356-0.267-0.49-0.478l-0.086,0.557H79.56v-5.626l-0.645-0.13v-0.728h1.853
				v2.461c0.131-0.178,0.289-0.318,0.47-0.415c0.181-0.095,0.388-0.145,0.623-0.145c0.571,0,1.007,0.217,1.306,0.646
				c0.3,0.433,0.448,1.007,0.448,1.723V167.955z M82.405,167.867c0-0.437-0.065-0.788-0.194-1.041
				c-0.127-0.255-0.348-0.382-0.659-0.382c-0.188,0-0.347,0.039-0.477,0.116c-0.13,0.08-0.233,0.192-0.308,0.34v1.896
				c0.074,0.143,0.177,0.247,0.311,0.315c0.131,0.074,0.292,0.11,0.483,0.11c0.312,0,0.533-0.11,0.657-0.329
				c0.125-0.222,0.187-0.534,0.187-0.938V167.867z"/>
			<path fill="#726658" d="M84.388,167.789c0-0.673,0.188-1.22,0.565-1.648c0.375-0.428,0.893-0.642,1.555-0.642
				c0.665,0,1.185,0.214,1.56,0.638c0.378,0.43,0.565,0.979,0.565,1.652v0.088c0,0.677-0.188,1.227-0.565,1.65
				c-0.375,0.426-0.893,0.639-1.552,0.639c-0.667,0-1.188-0.213-1.563-0.639c-0.377-0.424-0.565-0.974-0.565-1.65V167.789z
				 M85.603,167.877c0,0.409,0.072,0.739,0.217,0.987c0.142,0.248,0.375,0.371,0.697,0.371c0.312,0,0.541-0.123,0.689-0.373
				c0.145-0.251,0.218-0.578,0.218-0.985v-0.088c0-0.398-0.074-0.724-0.221-0.978c-0.148-0.251-0.377-0.376-0.694-0.376
				c-0.314,0-0.546,0.125-0.688,0.376c-0.145,0.254-0.217,0.579-0.217,0.978V167.877z"/>
			<path fill="#726658" d="M91.163,164.479v1.105h0.792v0.852h-0.792v2.29c0,0.172,0.037,0.301,0.111,0.372
				c0.069,0.073,0.167,0.112,0.29,0.112c0.083,0,0.156-0.005,0.218-0.012c0.062-0.008,0.133-0.016,0.211-0.033l0.103,0.876
				c-0.137,0.043-0.27,0.074-0.403,0.092c-0.131,0.022-0.277,0.033-0.432,0.033c-0.417,0-0.739-0.115-0.967-0.344
				c-0.224-0.232-0.337-0.594-0.337-1.092v-2.295h-0.662v-0.852h0.662v-1.105H91.163z"/>
			<path fill="#726658" d="M92.724,169.354l0.586-0.125v-2.791l-0.649-0.124v-0.729h1.861v3.645l0.583,0.125v0.728h-2.381V169.354z
				 M94.522,164.505h-1.212v-0.909h1.212V164.505z"/>
			<path fill="#726658" d="M97.828,169.235c0.215,0,0.391-0.064,0.522-0.188c0.124-0.129,0.194-0.298,0.194-0.505h1.093l0.016,0.023
				c0.011,0.454-0.161,0.837-0.513,1.14c-0.353,0.307-0.788,0.46-1.312,0.46c-0.67,0-1.187-0.209-1.549-0.637
				c-0.363-0.422-0.546-0.965-0.546-1.629v-0.131c0-0.661,0.188-1.203,0.56-1.633c0.374-0.424,0.904-0.638,1.595-0.638
				c0.362,0,0.687,0.054,0.975,0.16c0.29,0.111,0.53,0.264,0.722,0.461l0.015,1.2h-0.985l-0.201-0.703
				c-0.059-0.051-0.135-0.097-0.224-0.129c-0.087-0.037-0.189-0.053-0.302-0.053c-0.345,0-0.586,0.125-0.727,0.373
				c-0.144,0.252-0.213,0.57-0.213,0.961v0.131c0,0.399,0.065,0.72,0.194,0.97C97.273,169.112,97.502,169.235,97.828,169.235"/>
			<path fill="#726658" d="M104.085,167.129h-0.815l-0.132-0.561c-0.081-0.069-0.186-0.123-0.312-0.167
				c-0.126-0.045-0.268-0.066-0.418-0.066c-0.213,0-0.383,0.047-0.508,0.142c-0.125,0.096-0.187,0.216-0.187,0.359
				c0,0.139,0.059,0.249,0.177,0.341c0.122,0.089,0.359,0.17,0.716,0.238c0.558,0.111,0.975,0.271,1.241,0.488
				c0.267,0.215,0.402,0.511,0.402,0.888c0,0.404-0.176,0.733-0.52,0.992c-0.35,0.254-0.807,0.383-1.375,0.383
				c-0.346,0-0.665-0.048-0.952-0.153c-0.293-0.099-0.549-0.247-0.773-0.432l-0.013-1.009h0.848l0.165,0.585
				c0.071,0.061,0.17,0.105,0.294,0.133c0.126,0.028,0.258,0.045,0.394,0.045c0.244,0,0.432-0.045,0.562-0.135
				c0.129-0.088,0.193-0.208,0.193-0.359c0-0.133-0.065-0.248-0.198-0.345c-0.13-0.097-0.369-0.186-0.719-0.257
				c-0.526-0.109-0.928-0.272-1.197-0.481c-0.272-0.212-0.404-0.5-0.404-0.868c0-0.374,0.155-0.7,0.466-0.973
				c0.308-0.273,0.75-0.41,1.326-0.41c0.347,0,0.68,0.05,0.989,0.141c0.311,0.095,0.557,0.216,0.735,0.363L104.085,167.129z"/>
			<path fill="#726658" d="M109.1,164.479v1.105h0.789v0.852H109.1v2.29c0,0.172,0.035,0.301,0.109,0.372
				c0.069,0.073,0.167,0.112,0.289,0.112c0.083,0,0.157-0.005,0.216-0.012c0.062-0.008,0.135-0.016,0.212-0.033l0.104,0.876
				c-0.137,0.043-0.271,0.074-0.401,0.092c-0.134,0.022-0.279,0.033-0.436,0.033c-0.417,0-0.738-0.115-0.964-0.344
				c-0.229-0.232-0.34-0.594-0.34-1.092v-2.295h-0.663v-0.852h0.663v-1.105H109.1z"/>
			<path fill="#726658" d="M112.849,170.166c-0.65,0-1.167-0.205-1.555-0.623c-0.389-0.417-0.581-0.945-0.581-1.583v-0.165
				c0-0.668,0.181-1.219,0.55-1.654c0.365-0.429,0.858-0.645,1.474-0.642c0.609,0,1.083,0.183,1.417,0.548
				c0.335,0.365,0.504,0.858,0.504,1.485v0.657h-2.687l-0.01,0.024c0.021,0.3,0.121,0.543,0.3,0.734
				c0.176,0.189,0.412,0.287,0.716,0.287c0.268,0,0.492-0.026,0.671-0.082c0.177-0.054,0.368-0.14,0.581-0.256l0.328,0.747
				c-0.188,0.151-0.428,0.271-0.722,0.374C113.538,170.118,113.21,170.166,112.849,170.166 M112.736,166.436
				c-0.222,0-0.397,0.083-0.529,0.255c-0.129,0.174-0.209,0.398-0.24,0.676l0.01,0.024h1.491v-0.108c0-0.257-0.062-0.464-0.18-0.617
				C113.167,166.512,112.983,166.436,112.736,166.436"/>
			<path fill="#726658" d="M118.308,170.081c-0.035-0.075-0.064-0.154-0.09-0.231c-0.024-0.084-0.043-0.159-0.056-0.241
				c-0.147,0.169-0.32,0.304-0.528,0.403c-0.205,0.104-0.442,0.154-0.706,0.154c-0.442,0-0.793-0.119-1.051-0.359
				c-0.261-0.238-0.388-0.564-0.388-0.979c0-0.419,0.17-0.745,0.504-0.978c0.34-0.229,0.837-0.343,1.49-0.343h0.617v-0.44
				c0-0.216-0.062-0.384-0.187-0.502c-0.122-0.12-0.311-0.183-0.553-0.183c-0.138,0-0.26,0.018-0.369,0.049
				c-0.109,0.03-0.195,0.07-0.26,0.113l-0.081,0.482h-0.915l0.004-0.996c0.223-0.149,0.475-0.276,0.767-0.379
				c0.281-0.103,0.596-0.153,0.935-0.153c0.557,0,1.011,0.138,1.356,0.411c0.348,0.271,0.52,0.659,0.52,1.162v1.859
				c0,0.069,0,0.134,0.003,0.196c0.003,0.061,0.007,0.119,0.015,0.175l0.371,0.051v0.728H118.308z M117.253,169.269
				c0.185,0,0.351-0.038,0.5-0.117c0.149-0.08,0.266-0.18,0.348-0.298v-0.687h-0.617c-0.259,0-0.454,0.059-0.586,0.181
				c-0.133,0.121-0.201,0.265-0.201,0.434c0,0.153,0.052,0.274,0.148,0.356C116.945,169.229,117.079,169.269,117.253,169.269"/>
			<path fill="#726658" d="M120.188,166.313v-0.729h1.777l0.048,0.594c0.145-0.218,0.325-0.384,0.544-0.502
				c0.217-0.116,0.47-0.177,0.753-0.177c0.287,0,0.536,0.063,0.742,0.189c0.202,0.13,0.36,0.322,0.463,0.579
				c0.137-0.241,0.319-0.43,0.539-0.565c0.222-0.135,0.482-0.203,0.783-0.203c0.443,0,0.793,0.153,1.051,0.461
				c0.254,0.305,0.383,0.771,0.383,1.396v1.873l0.588,0.125v0.728h-2.325v-0.728l0.524-0.125v-1.875
				c0-0.341-0.055-0.578-0.167-0.712c-0.111-0.133-0.274-0.197-0.494-0.197c-0.175,0-0.32,0.037-0.445,0.113
				c-0.129,0.075-0.229,0.181-0.305,0.317c0,0.053,0.002,0.1,0.004,0.134c0.001,0.04,0.006,0.075,0.006,0.116v2.104l0.489,0.125
				v0.728h-2.189v-0.728l0.493-0.125v-1.875c0-0.334-0.055-0.568-0.17-0.705c-0.106-0.137-0.271-0.204-0.494-0.204
				c-0.166,0-0.31,0.028-0.432,0.091c-0.123,0.062-0.228,0.152-0.308,0.266v2.428l0.524,0.125v0.728h-2.322v-0.728l0.59-0.125
				v-2.791L120.188,166.313z"/>
		</g>
		<g id="NTNU_1_">
			<polygon fill="#C49A6C" points="136.914,164.027 136.914,164.76 136.265,164.885 136.265,170.081 135.062,170.081 
				132.613,166.005 132.589,166.012 132.589,169.229 133.235,169.354 133.235,170.081 130.73,170.081 130.73,169.354 
				131.377,169.229 131.377,164.885 130.73,164.76 130.73,164.027 131.377,164.027 132.589,164.027 135.03,168.101 135.062,168.098 
				135.062,164.885 134.408,164.76 134.408,164.027 136.265,164.027 			"/>
			<polygon fill="#C49A6C" points="142.847,164.027 142.847,165.64 141.913,165.64 141.867,164.964 140.751,164.964 
				140.751,169.229 141.401,169.354 141.401,170.081 138.892,170.081 138.892,169.354 139.54,169.229 139.54,164.964 
				138.429,164.964 138.381,165.64 137.455,165.64 137.455,164.027 			"/>
			<polygon fill="#C49A6C" points="149.64,164.027 149.64,164.76 148.989,164.885 148.989,170.081 147.785,170.081 145.337,166.005 
				145.312,166.012 145.312,169.229 145.959,169.354 145.959,170.081 143.454,170.081 143.454,169.354 144.098,169.229 
				144.098,164.885 143.454,164.76 143.454,164.027 144.098,164.027 145.312,164.027 147.756,168.101 147.785,168.098 
				147.785,164.885 147.135,164.76 147.135,164.027 148.989,164.027 			"/>
			<path fill="#C49A6C" d="M152.678,164.027v0.732l-0.648,0.125v3.158c0,0.398,0.106,0.698,0.323,0.896
				c0.211,0.197,0.509,0.296,0.881,0.296c0.379,0,0.678-0.099,0.894-0.293c0.217-0.199,0.324-0.498,0.324-0.899v-3.158l-0.643-0.125
				v-0.732h2.505v0.732l-0.647,0.125v3.158c0,0.68-0.223,1.204-0.672,1.57c-0.445,0.369-1.034,0.553-1.761,0.553
				c-0.723,0-1.307-0.184-1.751-0.553c-0.443-0.366-0.666-0.891-0.666-1.57v-3.158l-0.644-0.125v-0.732h0.644h1.213H152.678z"/>
		</g>
		<g id="ascend_1_">
			<path fill="#C49A6C" d="M59.331,156.197c-1.439,2.113-3.589,3.168-6.444,3.168c-2.592,0-4.706-0.902-6.339-2.701
				c-1.583-1.779-2.377-3.973-2.377-6.589c0-2.618,0.793-4.814,2.377-6.59c1.633-1.802,3.807-2.702,6.518-2.702
				c2.713,0,4.802,1.069,6.265,3.206v-2.916h2.702v18.002h-2.702V156.197z M53.246,156.914c1.945,0,3.48-0.67,4.61-2.012
				c1.08-1.275,1.62-2.884,1.62-4.827c0-1.945-0.54-3.553-1.62-4.825c-1.13-1.346-2.665-2.015-4.61-2.015
				c-1.92,0-3.48,0.669-4.682,2.015c-1.126,1.272-1.689,2.88-1.689,4.825c0,1.943,0.563,3.552,1.689,4.827
				C49.766,156.244,51.325,156.914,53.246,156.914"/>
			<path fill="#C49A6C" d="M76.399,145.899c-0.24-1.875-1.747-2.81-4.518-2.81c-2.775,0-4.16,0.863-4.16,2.593
				c0,0.72,0.293,1.264,0.88,1.639c0.589,0.37,1.329,0.677,2.216,0.918c0.886,0.24,1.854,0.46,2.899,0.667
				c1.042,0.202,2.01,0.491,2.897,0.862c0.889,0.374,1.627,0.883,2.214,1.53c0.588,0.648,0.884,1.537,0.884,2.666
				c0,1.753-0.661,3.089-1.981,4.014c-1.32,0.926-3.111,1.387-5.368,1.387c-2.398,0-4.307-0.601-5.723-1.798
				c-1.297-1.059-1.993-2.44-2.088-4.144h2.806c0.169,1.658,1.104,2.773,2.81,3.349c0.625,0.194,1.243,0.29,1.855,0.29
				c0.613,0,1.181-0.037,1.711-0.11c0.527-0.07,1.043-0.205,1.546-0.394c1.154-0.458,1.73-1.238,1.73-2.344
				c0-0.743-0.294-1.313-0.882-1.71c-0.589-0.396-1.33-0.721-2.214-0.973c-0.89-0.252-1.855-0.479-2.9-0.682
				c-1.042-0.205-2.011-0.489-2.899-0.848c-0.888-0.36-1.626-0.852-2.214-1.478c-0.588-0.621-0.883-1.487-0.883-2.593
				c0-1.632,0.594-2.897,1.784-3.798c1.188-0.899,2.947-1.352,5.274-1.352c2.208,0,3.948,0.529,5.223,1.586
				c1.055,0.888,1.668,2.064,1.838,3.53H76.399z"/>
			<path fill="#C49A6C" d="M90.584,156.914c1.153,0,2.174-0.322,3.064-0.971c0.888-0.647,1.537-1.485,1.943-2.52h2.917
				c-0.552,1.779-1.562,3.204-3.025,4.284c-1.536,1.103-3.362,1.657-5.472,1.657c-2.644,0-4.79-0.902-6.446-2.701
				c-1.61-1.751-2.413-3.949-2.413-6.589c0-2.641,0.802-4.837,2.413-6.59c1.656-1.802,3.802-2.702,6.446-2.702
				c2.109,0,3.936,0.554,5.472,1.658c1.464,1.079,2.473,2.508,3.025,4.282h-2.917c-0.406-1.029-1.056-1.871-1.943-2.52
				c-0.89-0.646-1.911-0.969-3.064-0.969c-1.148,0-2.127,0.179-2.932,0.537c-0.804,0.36-1.482,0.852-2.034,1.478
				c-1.177,1.295-1.764,2.905-1.764,4.825c0,1.923,0.587,3.527,1.764,4.827C86.819,156.244,88.476,156.914,90.584,156.914"/>
			<path fill="#C49A6C" d="M110.953,156.562c2.319-0.7,3.696-2.168,4.126-4.401l2.828-0.852c-0.129,1.741-0.694,3.291-1.702,4.647
				c-1.009,1.358-2.533,2.345-4.581,2.961c-2.599,0.782-4.97,0.559-7.122-0.672c-2.093-1.198-3.518-3.064-4.28-5.595
				c-0.77-2.55-0.647-4.882,0.373-6.992c1.088-2.21,2.921-3.701,5.496-4.477c2.572-0.778,4.924-0.546,7.053,0.692
				c2.016,1.197,3.408,3.071,4.178,5.623l0.312,1.036l-14.446,4.352c0.66,1.531,1.688,2.65,3.082,3.359
				C107.69,156.969,109.251,157.076,110.953,156.562 M106.796,143.524c-1.585,0.48-2.771,1.374-3.552,2.689
				c-0.727,1.244-0.977,2.661-0.751,4.249l11.724-3.535c-0.688-1.447-1.68-2.488-2.974-3.125
				C109.864,143.141,108.382,143.046,106.796,143.524"/>
			<path fill="#C49A6C" d="M122.812,141.073v2.808c0.65-0.862,1.442-1.597,2.376-2.197c0.938-0.599,2.009-0.9,3.206-0.9
				s2.232,0.169,3.099,0.504c0.862,0.336,1.62,0.84,2.27,1.514c1.486,1.465,2.232,3.398,2.232,5.797v10.478h-2.703v-10.404
				c0-1.658-0.465-2.977-1.404-3.962c-0.936-0.983-2.148-1.474-3.636-1.474c-1.516,0-2.796,0.503-3.853,1.511
				c-1.06,1.031-1.587,2.353-1.587,3.958v10.371h-2.7v-18.002H122.812z"/>
			<path fill="#C49A6C" d="M153.637,156.197c-1.44,2.113-3.588,3.168-6.444,3.168c-2.594,0-4.706-0.902-6.338-2.701
				c-1.585-1.779-2.378-3.973-2.378-6.589c0-2.618,0.793-4.814,2.378-6.59c1.632-1.802,3.803-2.702,6.519-2.702
				c2.71,0,4.8,1.069,6.264,3.206V133.87h2.701v25.205h-2.701V156.197z M147.553,156.914c1.942,0,3.479-0.67,4.607-2.012
				c1.08-1.275,1.621-2.884,1.621-4.827c0-1.945-0.541-3.553-1.621-4.825c-1.129-1.346-2.665-2.015-4.607-2.015
				c-1.923,0-3.482,0.669-4.681,2.015c-1.13,1.272-1.694,2.88-1.694,4.825c0,1.943,0.564,3.552,1.694,4.827
				C144.07,156.244,145.63,156.914,147.553,156.914"/>
		</g>
	</g>
	<g id="Logo">
		<path fill="#F3BB37" d="M126.498,94.264c-2.756-1.282-4.281-1.405-5.934-0.722L65.76,118.048c-1.689,0.797-2.868,2.016-2.868,5.58
			v7.312l71.665-32.587c0.037-0.015,0.064-0.027,0.098-0.043C134.654,98.31,128.779,95.327,126.498,94.264z"/>
		<path fill="#F09B36" d="M137.648,96.271l-0.012-8.505c0-1.863-1.115-3.576-2.904-4.464L67.767,50.126c0,1.468,0,4.637,0,8.482
			c0,1.864,1.115,3.577,2.904,4.465L137.648,96.271z"/>
		<path fill="#D5562B" d="M137.633,80.996L65.794,45.204c-1.788-0.886-2.904-2.6-2.904-4.463v-0.005v-8.497l71.842,35.673
			c1.789,0.887,2.9,2.599,2.9,4.463C137.633,76.222,137.633,78.855,137.633,80.996"/>
		<path fill="#B55232" d="M134.793,52.554L86.867,28.792v8.322c0,1.824,1.09,3.501,2.84,4.368l47.926,23.858
			c0.004-1.703,0-4.653,0-8.417C137.633,55.1,136.543,53.422,134.793,52.554"/>
	</g>
	<g id="ascend_mini" display="none">
		<path display="inline" fill="#C49A6C" d="M73.722,152.822c-0.934,1.371-2.327,2.056-4.179,2.056c-1.682,0-3.051-0.585-4.11-1.752
			c-1.027-1.152-1.542-2.576-1.542-4.273s0.515-3.122,1.542-4.272c1.06-1.169,2.468-1.753,4.227-1.753
			c1.76,0,3.114,0.693,4.063,2.079v-1.892h1.752v11.676h-1.752V152.822z M69.775,153.29c1.262,0,2.258-0.437,2.99-1.308
			c0.701-0.826,1.05-1.868,1.05-3.13s-0.35-2.305-1.05-3.13c-0.732-0.871-1.729-1.307-2.99-1.307c-1.245,0-2.257,0.436-3.036,1.307
			c-0.731,0.825-1.097,1.868-1.097,3.13s0.366,2.304,1.097,3.13C67.519,152.854,68.53,153.29,69.775,153.29"/>
		<path display="inline" fill="#C49A6C" d="M84.792,146.144c-0.156-1.215-1.133-1.821-2.93-1.821c-1.799,0-2.698,0.561-2.698,1.682
			c0,0.467,0.19,0.82,0.572,1.062c0.381,0.24,0.86,0.439,1.437,0.595c0.575,0.156,1.203,0.299,1.88,0.434
			c0.677,0.131,1.304,0.318,1.879,0.56c0.576,0.241,1.055,0.572,1.437,0.993c0.381,0.419,0.572,0.995,0.572,1.728
			c0,1.137-0.429,2.005-1.285,2.604c-0.856,0.599-2.017,0.898-3.48,0.898c-1.555,0-2.793-0.391-3.712-1.168
			c-0.841-0.686-1.292-1.58-1.354-2.686h1.821c0.109,1.074,0.716,1.798,1.822,2.171c0.406,0.126,0.806,0.188,1.203,0.188
			c0.398,0,0.767-0.024,1.11-0.071c0.342-0.046,0.676-0.132,1.003-0.256c0.748-0.297,1.122-0.803,1.122-1.518
			c0-0.482-0.19-0.853-0.571-1.11c-0.382-0.257-0.862-0.468-1.436-0.631c-0.578-0.164-1.204-0.311-1.881-0.443
			c-0.677-0.132-1.304-0.315-1.88-0.549c-0.575-0.232-1.054-0.553-1.436-0.957c-0.381-0.405-0.573-0.967-0.573-1.682
			c0-1.058,0.385-1.88,1.157-2.464c0.771-0.583,1.911-0.876,3.421-0.876c1.431,0,2.56,0.344,3.386,1.027
			c0.684,0.576,1.082,1.339,1.191,2.289H84.792z"/>
		<path display="inline" fill="#C49A6C" d="M93.992,153.29c0.748,0,1.409-0.21,1.985-0.631s0.998-0.965,1.261-1.635h1.892
			c-0.358,1.153-1.012,2.077-1.961,2.779c-0.998,0.715-2.181,1.074-3.549,1.074c-1.714,0-3.106-0.585-4.181-1.752
			c-1.044-1.137-1.565-2.562-1.565-4.273c0-1.713,0.521-3.137,1.565-4.272c1.074-1.169,2.467-1.753,4.181-1.753
			c1.368,0,2.551,0.358,3.549,1.074c0.949,0.7,1.603,1.627,1.961,2.779h-1.892c-0.263-0.669-0.685-1.215-1.261-1.636
			c-0.576-0.42-1.237-0.629-1.985-0.629c-0.747,0-1.383,0.117-1.903,0.35c-0.521,0.232-0.961,0.553-1.318,0.957
			c-0.764,0.841-1.145,1.885-1.145,3.13s0.38,2.288,1.145,3.13C91.548,152.854,92.623,153.29,93.992,153.29"/>
		<path display="inline" fill="#C49A6C" d="M107.2,153.061c1.505-0.455,2.396-1.407,2.675-2.855l1.834-0.553
			c-0.082,1.13-0.45,2.135-1.104,3.014c-0.652,0.881-1.644,1.521-2.97,1.921c-1.685,0.509-3.225,0.362-4.62-0.437
			c-1.356-0.777-2.281-1.986-2.775-3.627c-0.499-1.654-0.419-3.166,0.242-4.536c0.706-1.433,1.894-2.399,3.563-2.903
			c1.669-0.504,3.194-0.353,4.575,0.45c1.306,0.776,2.209,1.992,2.709,3.646l0.203,0.672l-9.37,2.824
			c0.43,0.992,1.095,1.719,1.998,2.178C105.083,153.323,106.096,153.393,107.2,153.061 M104.504,144.604
			c-1.029,0.311-1.797,0.891-2.304,1.743c-0.472,0.809-0.633,1.728-0.486,2.757l7.603-2.292c-0.445-0.939-1.089-1.615-1.93-2.028
			C106.492,144.354,105.532,144.294,104.504,144.604"/>
		<path display="inline" fill="#C49A6C" d="M114.892,143.015v1.821c0.421-0.561,0.935-1.036,1.542-1.425
			c0.606-0.39,1.3-0.584,2.077-0.584s1.448,0.108,2.01,0.326c0.56,0.218,1.05,0.545,1.471,0.981
			c0.966,0.949,1.448,2.205,1.448,3.761v6.795h-1.752v-6.749c0-1.074-0.303-1.93-0.911-2.569c-0.606-0.638-1.395-0.956-2.358-0.956
			c-0.981,0-1.813,0.326-2.499,0.98c-0.686,0.669-1.027,1.525-1.027,2.567v6.727h-1.751v-11.676H114.892z"/>
		<path display="inline" fill="#C49A6C" d="M134.882,152.822c-0.934,1.371-2.328,2.056-4.181,2.056c-1.682,0-3.052-0.585-4.11-1.752
			c-1.027-1.152-1.542-2.576-1.542-4.273s0.515-3.122,1.542-4.272c1.059-1.169,2.468-1.753,4.228-1.753
			c1.759,0,3.112,0.693,4.063,2.079v-6.563h1.75v16.348h-1.75V152.822z M130.936,153.29c1.26,0,2.256-0.437,2.987-1.308
			c0.702-0.826,1.053-1.868,1.053-3.13s-0.351-2.305-1.053-3.13c-0.731-0.871-1.728-1.307-2.987-1.307
			c-1.246,0-2.259,0.436-3.036,1.307c-0.732,0.825-1.099,1.868-1.099,3.13s0.366,2.304,1.099,3.13
			C128.677,152.854,129.689,153.29,130.936,153.29"/>
	</g>
	<g id="ascend_mega" display="none">
		<path display="inline" fill="#C49A6C" d="M54.666,157.281c-1.604,2.355-3.999,3.53-7.181,3.53c-2.889,0-5.242-1.003-7.062-3.008
			c-1.765-1.98-2.649-4.428-2.649-7.342c0-2.917,0.884-5.363,2.649-7.343c1.82-2.007,4.24-3.01,7.262-3.01
			c3.023,0,5.351,1.19,6.981,3.571v-3.249h3.01v20.061h-3.01V157.281z M47.885,158.085c2.168,0,3.879-0.749,5.137-2.247
			c1.204-1.419,1.804-3.21,1.804-5.376c0-2.168-0.601-3.96-1.804-5.377c-1.258-1.497-2.969-2.246-5.137-2.246
			c-2.14,0-3.876,0.749-5.215,2.246c-1.256,1.417-1.885,3.209-1.885,5.377c0,2.166,0.629,3.957,1.885,5.376
			C44.008,157.336,45.745,158.085,47.885,158.085"/>
		<path display="inline" fill="#C49A6C" d="M73.684,145.808c-0.268-2.087-1.946-3.13-5.035-3.13c-3.091,0-4.634,0.962-4.634,2.889
			c0,0.803,0.327,1.41,0.982,1.826c0.655,0.413,1.478,0.755,2.468,1.022c0.988,0.269,2.066,0.515,3.23,0.743
			c1.162,0.226,2.24,0.548,3.228,0.962c0.99,0.416,1.813,0.983,2.468,1.706c0.655,0.721,0.984,1.711,0.984,2.97
			c0,1.952-0.738,3.443-2.207,4.473c-1.472,1.029-3.465,1.543-5.979,1.543c-2.673,0-4.8-0.668-6.378-2.004
			c-1.445-1.178-2.22-2.717-2.327-4.615h3.128c0.187,1.846,1.229,3.089,3.13,3.731c0.697,0.215,1.384,0.322,2.066,0.322
			c0.684,0,1.317-0.042,1.907-0.122c0.588-0.079,1.162-0.227,1.724-0.44c1.284-0.509,1.926-1.378,1.926-2.607
			c0-0.829-0.327-1.465-0.982-1.906c-0.655-0.442-1.48-0.804-2.466-1.084c-0.992-0.281-2.068-0.534-3.232-0.763
			c-1.162-0.226-2.24-0.542-3.23-0.942c-0.988-0.4-1.811-0.949-2.466-1.646c-0.655-0.694-0.984-1.658-0.984-2.889
			c0-1.817,0.662-3.229,1.987-4.231c1.324-1.003,3.283-1.506,5.877-1.506c2.459,0,4.399,0.59,5.818,1.765
			c1.175,0.991,1.859,2.301,2.046,3.934H73.684z"/>
		<path display="inline" fill="#C49A6C" d="M89.491,158.085c1.284,0,2.42-0.361,3.411-1.084c0.988-0.723,1.713-1.657,2.166-2.809
			h3.25c-0.616,1.981-1.739,3.57-3.37,4.773c-1.713,1.23-3.746,1.846-6.097,1.846c-2.945,0-5.337-1.003-7.183-3.008
			c-1.793-1.952-2.688-4.401-2.688-7.342c0-2.943,0.895-5.39,2.688-7.343c1.846-2.007,4.238-3.01,7.183-3.01
			c2.351,0,4.384,0.616,6.097,1.846c1.63,1.204,2.753,2.795,3.37,4.773h-3.25c-0.453-1.147-1.178-2.085-2.166-2.808
			c-0.991-0.723-2.127-1.082-3.411-1.082c-1.282,0-2.375,0.2-3.27,0.601c-0.896,0.4-1.652,0.949-2.266,1.646
			c-1.312,1.443-1.965,3.237-1.965,5.377s0.653,3.931,1.965,5.376C85.292,157.336,87.138,158.085,89.491,158.085"/>
		<path display="inline" fill="#C49A6C" d="M112.183,157.69c2.586-0.781,4.118-2.416,4.597-4.906l3.15-0.949
			c-0.142,1.941-0.772,3.668-1.896,5.179c-1.121,1.513-2.823,2.614-5.102,3.3c-2.896,0.873-5.54,0.623-7.937-0.751
			c-2.331-1.334-3.92-3.411-4.769-6.229c-0.858-2.843-0.721-5.439,0.416-7.793c1.212-2.462,3.253-4.125,6.123-4.989
			c2.867-0.866,5.487-0.607,7.86,0.773c2.244,1.334,3.796,3.421,4.653,6.264l0.349,1.154l-16.097,4.852
			c0.737,1.704,1.881,2.952,3.433,3.742C108.548,158.144,110.286,158.261,112.183,157.69 M107.551,143.163
			c-1.768,0.533-3.087,1.53-3.958,2.995c-0.81,1.389-1.088,2.967-0.836,4.736l13.063-3.939c-0.767-1.613-1.872-2.773-3.315-3.482
			C110.968,142.734,109.318,142.63,107.551,143.163"/>
		<path display="inline" fill="#C49A6C" d="M125.397,140.432v3.128c0.723-0.963,1.606-1.778,2.649-2.447
			c1.042-0.668,2.233-1.003,3.569-1.003c1.337,0,2.488,0.187,3.452,0.562c0.962,0.374,1.805,0.936,2.527,1.685
			c1.659,1.633,2.488,3.787,2.488,6.461v11.676h-3.011v-11.596c0-1.846-0.521-3.315-1.565-4.414
			c-1.042-1.095-2.394-1.644-4.051-1.644c-1.687,0-3.117,0.562-4.294,1.685c-1.178,1.149-1.766,2.621-1.766,4.412v11.557h-3.008
			v-20.061H125.397z"/>
		<path display="inline" fill="#C49A6C" d="M159.742,157.281c-1.604,2.355-3.999,3.53-7.182,3.53c-2.891,0-5.243-1.003-7.062-3.008
			c-1.765-1.98-2.648-4.428-2.648-7.342c0-2.917,0.884-5.363,2.648-7.343c1.818-2.007,4.238-3.01,7.262-3.01
			c3.021,0,5.349,1.19,6.981,3.571v-11.275h3.008v28.087h-3.008V157.281z M152.961,158.085c2.166,0,3.877-0.749,5.135-2.247
			c1.204-1.419,1.807-3.21,1.807-5.376c0-2.168-0.603-3.96-1.807-5.377c-1.258-1.497-2.969-2.246-5.135-2.246
			c-2.14,0-3.879,0.749-5.215,2.246c-1.259,1.417-1.888,3.209-1.888,5.377c0,2.166,0.629,3.957,1.888,5.376
			C149.082,157.336,150.821,158.085,152.961,158.085"/>
	</g>
</g>
</svg>
