<svg id="Circuit_Brain" data-name="Circuit Brain" xmlns="http://www.w3.org/2000/svg" viewBox="0 0 2834.65 2834.65"><defs><style>.cls-1,.cls-2{fill:none;stroke:#fff;stroke-linecap:round;stroke-miterlimit:10;}.cls-1{stroke-width:100px;}.cls-2{stroke-width:60px;}.cls-3{fill:#fff;}</style></defs><title>Ai_logo</title><rect class="cls-1" x="947.42" y="1011.59" width="882.98" height="781.41" rx="87.11"/><rect class="cls-1" x="1158.91" y="1201.28" width="459.98" height="402.03"/><line class="cls-2" x1="1832.71" y1="1149.8" x2="2448.28" y2="1147.12"/><line class="cls-2" x1="1843.79" y1="1390.65" x2="2462.33" y2="1390.65"/><line class="cls-2" x1="1842.31" y1="1642.16" x2="2456.58" y2="1642.16"/><polyline class="cls-2" points="2140.32 1642.16 2140.32 2068.52 1593.73 2068.52 1544.31 2068.52"/><line class="cls-2" x1="943.16" y1="1147.12" x2="398.5" y2="1147.12"/><line class="cls-2" x1="943.16" y1="1400.67" x2="373.94" y2="1400.67"/><line class="cls-2" x1="943.16" y1="1639.51" x2="377.84" y2="1639.51"/><polyline class="cls-2" points="690.63 1640.15 690.63 2068.52 1061.32 2068.52"/><path class="cls-3" d="M1061.32,2136.2a67.68,67.68,0,1,0-67.67-67.68A67.68,67.68,0,0,0,1061.32,2136.2Z"/><line class="cls-2" x1="690.63" y1="2068.52" x2="454.55" y2="2068.52"/><polyline class="cls-2" points="2016.67 2068.52 2016.67 2338.7 2286.67 2338.7"/><polyline class="cls-2" points="2016.67 2338.7 1826.14 2338.7 1826.14 2677.53"/><polyline class="cls-2" points="846.29 2068.52 846.29 2350.5 1283.52 2350.5"/><polyline class="cls-2" points="685.67 1147.13 685.67 465.46 685.86 756.58 1270.93 756.58 1283.52 756.58"/><polyline class="cls-2" points="986.71 223.2 986.71 508.46 1271.12 508.46 1283.52 508.46"/><path class="cls-1" d="M1283.52,1811c2.27,427.71,0,720.28,0,740.77,0,40.77-12.4,81.82-46.41,106.84-31.72,23.33-73.3,29-111.68,28.89-100.24-.39-202.45-34.31-289.15-82.71-140.54-78.46-250.93-203.21-316.68-350.22-26.44-59.12-53.45-118-74.23-179.44q-7-20.61-13.24-41.44c-64.57-215.46-66.75-392-67.31-504.56-1.18-236,38.64-416.09,56.95-490.29C456,900.27,501.9,721.18,632.61,532.6c62.21-89.75,132.53-169,220.33-234.61,50.26-37.56,102.49-68,160.65-96.18,41.68-20.21,269.34-105.29,269.34,64.21l.59,742.76"/><path class="cls-1" d="M1544.72,1803c-3.54,414.77.2,665.45,0,732.59-.41,136.91,146.36,155.61,235.11,152.17,264.78-10.26,464-201.26,524.53-337.29,78-175.18,165.47-473.94,165.49-949.83,0-410.45-196.58-1153.27-678.07-1248.48-62.43-12.34-242.59-41.43-248.45,131.5l1,725.09"/><polyline class="cls-2" points="2200.75 1147.13 2200.75 759.63 1800.81 759.63 1800.81 362.36"/><path class="cls-3" d="M1868.49,362.36A67.68,67.68,0,1,0,1800.81,430,67.68,67.68,0,0,0,1868.49,362.36Z"/><polyline class="cls-2" points="2079.88 287.33 2079.88 545.45 1800.81 545.45"/></svg>