<svg xmlns="http://www.w3.org/2000/svg" viewBox="0 0 1024 1024"><defs><style>.cls-1{fill:#fff;}</style></defs><title>Alphapilot_logo</title><g id="Icons"><path class="cls-1" d="M503.53,214.66h15.15a4.18,4.18,0,0,1,4.18,4.18V805.35a4.12,4.12,0,0,1-4.12,4.12H503.53a4.12,4.12,0,0,1-4.12-4.12V218.79a4.12,4.12,0,0,1,4.12-4.12Z" transform="translate(324.45 -186.94) rotate(29.99)"/><rect class="cls-1" x="640.1" y="294.24" width="47.86" height="47.86" transform="translate(247.99 -289.35) rotate(29.99)"/><rect class="cls-1" x="722.99" y="342.09" width="47.86" height="47.86" transform="translate(56.52 829.93) rotate(-60.01)"/><rect class="cls-1" x="805.89" y="389.94" width="47.86" height="47.86" transform="translate(56.54 925.65) rotate(-60.01)"/><rect class="cls-1" x="657.62" y="359.61" width="47.86" height="47.86" transform="translate(283.02 -289.35) rotate(29.99)"/><rect class="cls-1" x="740.52" y="407.46" width="47.86" height="47.86" transform="translate(8.67 877.8) rotate(-60.01)"/><rect class="cls-1" x="823.42" y="455.31" width="47.86" height="47.86" transform="translate(8.68 973.52) rotate(-60.01)"/><rect class="cls-1" x="592.24" y="377.14" width="47.86" height="47.86" transform="translate(283.02 -254.32) rotate(29.99)"/><rect class="cls-1" x="675.14" y="424.99" width="47.86" height="47.86" transform="translate(-39.2 829.94) rotate(-60.01)"/><rect class="cls-1" x="758.04" y="472.84" width="47.86" height="47.86" transform="translate(-39.19 925.66) rotate(-60.01)"/><rect class="cls-1" x="609.77" y="442.51" width="47.86" height="47.86" transform="translate(318.05 -254.33) rotate(29.99)"/><rect class="cls-1" x="692.67" y="490.36" width="47.86" height="47.86" transform="translate(-87.06 877.81) rotate(-60.01)"/><rect class="cls-1" x="775.56" y="538.21" width="47.86" height="47.86" transform="translate(-87.04 973.53) rotate(-60.01)"/><rect class="cls-1" x="888.79" y="437.79" width="47.86" height="47.86" transform="translate(56.55 1021.38) rotate(-60.01)"/><rect class="cls-1" x="840.94" y="520.69" width="47.86" height="47.86" transform="translate(-39.18 1021.39) rotate(-60.01)"/><path class="cls-1" d="M945.41,453,850.14,618l-292.72-168,95.27-165L938.87,449.24m9.41-1.26L650.58,277.06l-98.13,170a5.74,5.74,0,0,0,2.1,7.84L847.27,623a5.75,5.75,0,0,0,7.85-2.11l95.26-165a5.75,5.75,0,0,0-2.1-7.85Z"/><path class="cls-1" d="M505.26,214.52h15.21a4.12,4.12,0,0,1,4.12,4.12V805.15a4.18,4.18,0,0,1-4.18,4.18H505.26a4.12,4.12,0,0,1-4.12-4.12V218.65A4.12,4.12,0,0,1,505.26,214.52Z" transform="translate(1212.97 698.91) rotate(150.01)"/><rect class="cls-1" x="336.05" y="294.1" width="47.86" height="47.86" transform="translate(830.73 413.51) rotate(150.01)"/><rect class="cls-1" x="253.15" y="341.95" width="47.86" height="47.86" transform="translate(-145.8 187.52) rotate(-29.99)"/><rect class="cls-1" x="170.25" y="389.8" width="47.86" height="47.86" transform="translate(-180.83 152.48) rotate(-29.99)"/><rect class="cls-1" x="318.52" y="359.47" width="47.86" height="47.86" transform="translate(830.71 544.26) rotate(150.01)"/><rect class="cls-1" x="235.62" y="407.33" width="47.86" height="47.86" transform="translate(-180.83 187.51) rotate(-29.99)"/><rect class="cls-1" x="152.73" y="455.18" width="47.86" height="47.86" transform="translate(-215.86 152.48) rotate(-29.99)"/><rect class="cls-1" x="383.9" y="377" width="47.86" height="47.86" transform="translate(961.46 544.28) rotate(150.01)"/><rect class="cls-1" x="301" y="424.85" width="47.86" height="47.86" transform="translate(-180.84 222.54) rotate(-29.99)"/><rect class="cls-1" x="218.1" y="472.7" width="47.86" height="47.86" transform="translate(-215.86 187.51) rotate(-29.99)"/><rect class="cls-1" x="366.37" y="442.37" width="47.86" height="47.86" transform="translate(961.45 675.03) rotate(150.01)"/><rect class="cls-1" x="283.48" y="490.22" width="47.86" height="47.86" transform="translate(-215.87 222.54) rotate(-29.99)"/><rect class="cls-1" x="200.58" y="538.08" width="47.86" height="47.86" transform="translate(-250.89 187.5) rotate(-29.99)"/><rect class="cls-1" x="87.35" y="437.65" width="47.86" height="47.86" transform="translate(-215.85 117.45) rotate(-29.99)"/><rect class="cls-1" x="135.2" y="520.55" width="47.86" height="47.86" transform="translate(-250.89 152.47) rotate(-29.99)"/><path class="cls-1" d="M85.13,449.11,371.31,284.77l95.27,165L173.86,617.86l-95.27-165m-2.87-5a5.74,5.74,0,0,0-2.1,7.84l95.26,165a5.76,5.76,0,0,0,7.85,2.1L469.45,454.77a5.74,5.74,0,0,0,2.1-7.84l-98.13-170L75.72,447.85Z"/></g></svg>