<svg xmlns="http://www.w3.org/2000/svg" viewBox="0 0 2160 2160"><defs><style>.cls-1{fill:#fff;}</style></defs><title>Artboard 10</title><g id="Layer_2" data-name="Layer 2"><path class="cls-1" d="M1066.19,447.88h27.63a37.63,37.63,0,0,1,37.63,37.63V1665.32A10.48,10.48,0,0,1,1121,1675.8H1039a10.48,10.48,0,0,1-10.48-10.48V485.51a37.63,37.63,0,0,1,37.63-37.63Z"/><path class="cls-1" d="M2118,779.05,2012.2,968.34a14.22,14.22,0,0,1-12.4,7.28H1095.24A14.21,14.21,0,0,1,1081,961.41V582.86a14.21,14.21,0,0,1,14.21-14.2H1999.8a14.21,14.21,0,0,1,12.4,7.27L2118,765.19A14.24,14.24,0,0,1,2118,779.05Z"/><path class="cls-1" d="M1021,1035.62v287H189.14L109,1179.08l80.18-143.46H1021m48.49-60H160.69a11.5,11.5,0,0,0-10.05,5.89l-107.27,192a11.53,11.53,0,0,0,0,11.24l107.27,192a11.49,11.49,0,0,0,10.05,5.9h908.83a11.51,11.51,0,0,0,11.51-11.51V987.13a11.51,11.51,0,0,0-11.51-11.51Z"/><rect class="cls-1" x="787.38" y="1628.14" width="585.24" height="138.74" rx="11.38"/></g></svg>