<svg xmlns="http://www.w3.org/2000/svg" viewBox="0 0 2834.65 2834.65"><defs><style>.cls-1{fill:#fff;}</style></defs><title>Artboard 17</title><g id="Layer_2" data-name="Layer 2"><path class="cls-1" d="M2765,1400.92l-343.45-208.73c-38.05-170-118.34-324.2-229.14-451.09l125.55-201.26,38.2-61.25-61.74,38.5L2093.53,642.34c-126.82-110.87-280.92-191.12-450.87-229.13l-209-343.74-16.34-26.89-16.45,27.08L1192.08,413.21A1024.31,1024.31,0,0,0,741.2,642.34l-.13-.08L540,516.82l-.12-.12-61.25-38.21,38.48,61.71-.27-.27L642.34,741.2C531.57,868,451.41,1022,413.31,1191.88v.1l-343.85,209-26.88,16.34,27.08,16.44,343.65,208.85v.1a1025.79,1025.79,0,0,0,229,450.77L516.7,2294.8l-38.21,61.25,61.74-38.51,201-125.25a1027,1027,0,0,0,450.68,229h.1l208.94,343.84,16.35,26.88,16.44-27.08,208.85-343.64h.1c169.95-38,323.95-118.26,450.77-229l201.37,125.65,61.24,38.2-38.5-61.74-125.25-200.87,0-.06s0,0,0,0l0,.06a1025.84,1025.84,0,0,0,229.13-450.91l343.72-208.87,26.88-16.34Zm-545.31,32.79c-4.24,209-88.62,398.59-223.72,539.1l.09.09L1972.9,1996l-.09-.09c-140.61,135-330.15,219.48-539.1,223.62-5.41.1-10.83.2-16.34.2s-11-.1-16.45-.2c-208.94-4.23-398.49-88.62-539-223.71-7.88-7.49-15.66-15.27-23.14-23.14-135.09-140.51-219.48-330.06-223.71-539-.11-5.41-.2-10.93-.2-16.44s.09-10.93.2-16.34c4.13-209,88.62-398.6,223.61-539.11,7.58-7.87,15.27-15.55,23.14-23.14C1002.33,703.59,1192,619.2,1400.92,615c5.42-.1,10.93-.2,16.45-.2s10.93.1,16.34.2c209,4.13,398.49,88.62,539.1,223.71,7.88,7.48,15.56,15.26,23.14,23.14,135.1,140.51,219.58,330.16,223.72,539.11.09,5.41.2,10.82.2,16.34S2219.76,1428.3,2219.67,1433.71Z"/><path class="cls-1" d="M2192.33,2093.49s0,0,0,0l0-.06s0,0,0,0Z"/><path class="cls-1" d="M741.1,642.24l0,0L540,516.82l-.12-.12Z"/><path class="cls-1" d="M2317.54,2294.4l-125.25-200.87,0-.06s0,0,0,0l0,.06Z"/><polygon class="cls-1" points="1722.51 1778.35 1433.71 1598.55 1417.27 1588.31 1400.92 1598.45 1112.12 1778.35 1132.21 1725.57 1160.76 1650.73 1243.47 1433.71 1255.98 1400.93 1289.56 1312.7 1302.36 1279.22 1400.92 1020.46 1417.27 977.53 1433.71 1020.65 1532.28 1279.22 1545.08 1312.7 1578.65 1400.93 1591.16 1433.71 1673.87 1650.73 1702.42 1725.57 1722.51 1778.35"/></g></svg>