<svg id="Layer_2" data-name="Layer 2" xmlns="http://www.w3.org/2000/svg" viewBox="0 0 609.24 562.35"><defs><style>.cls-1,.cls-2,.cls-4,.cls-5{fill:none;stroke:#fff;stroke-miterlimit:10;}.cls-1{stroke-width:20px;}.cls-2,.cls-4,.cls-5{stroke-linecap:round;stroke-width:10px;}.cls-3{fill:#fff;}.cls-4{stroke-dasharray:0 24.25;}.cls-5{stroke-dasharray:0 18.01;}</style></defs><title>Marketing_logo</title><circle class="cls-1" cx="344.79" cy="300.13" r="62.8"/><line class="cls-2" x1="344.79" y1="214.75" x2="344.79" y2="129.14"/><path class="cls-3" d="M344.79,43.72a31.58,31.58,0,1,1-31.58,31.57,31.6,31.6,0,0,1,31.58-31.57m0-10a41.58,41.58,0,1,0,41.57,41.57,41.58,41.58,0,0,0-41.57-41.57Z"/><line class="cls-2" x1="375.21" y1="379.91" x2="405.71" y2="459.9"/><path class="cls-3" d="M425.66,468.85v10a31.58,31.58,0,0,1,11.26,61.09A31.27,31.27,0,0,1,425.68,542a31.59,31.59,0,0,1,0-63.18v-10m0,0a41.59,41.59,0,1,0,38.86,26.78,41.64,41.64,0,0,0-38.86-26.78Z"/><line class="cls-2" x1="428.24" y1="318.19" x2="428.24" y2="318.19"/><line class="cls-4" x1="451.95" y1="323.32" x2="463.8" y2="325.88"/><line class="cls-2" x1="475.65" y1="328.44" x2="475.65" y2="328.44"/><path class="cls-3" d="M515.62,365.4a28.28,28.28,0,1,1,27.6-22.31A28.36,28.36,0,0,1,515.62,365.4Z"/><path class="cls-3" d="M515.56,309.34h0a28,28,0,0,1,5.9.63,27.75,27.75,0,0,1,21.27,33,27.7,27.7,0,0,1-33,21.27,27.77,27.77,0,0,1-21.28-33,27.91,27.91,0,0,1,27.12-21.9m0-1a28.78,28.78,0,0,0-6.06,56.9,29.16,29.16,0,0,0,6.12.66,28.78,28.78,0,0,0-.06-57.56Z"/><line class="cls-2" x1="275.66" y1="250.02" x2="275.66" y2="250.02"/><line class="cls-5" x1="261.08" y1="239.45" x2="224.62" y2="213.03"/><line class="cls-2" x1="217.33" y1="207.74" x2="217.33" y2="207.74"/><path class="cls-3" d="M182.32,212.61a30.8,30.8,0,0,1-24.91-48.87,30.92,30.92,0,0,1,25-12.73,30.79,30.79,0,0,1,24.91,48.87A30.91,30.91,0,0,1,182.32,212.61Z"/><path class="cls-3" d="M182.37,150.51v1A30.3,30.3,0,1,1,157.82,164a30.12,30.12,0,0,1,24.55-12.52v-1m0,0a31.3,31.3,0,1,0,18.34,6,31.26,31.26,0,0,0-18.34-6Z"/><line class="cls-2" x1="269.11" y1="339.67" x2="155.88" y2="398.83"/><path class="cls-3" d="M105.41,380.22v14a30.6,30.6,0,1,1-14.12,3.48,30.5,30.5,0,0,1,14.12-3.48v-14m0,0A44.58,44.58,0,1,0,145,404.16a44.31,44.31,0,0,0-39.55-23.94Z"/><line class="cls-2" x1="397.45" y1="232.92" x2="454.46" y2="160.14"/><path class="cls-3" d="M495.82,54.67v16a37.57,37.57,0,1,1-29.61,14.4,37.2,37.2,0,0,1,29.61-14.4v-16m0,0a53.57,53.57,0,1,0,33,11.4,53.49,53.49,0,0,0-33-11.4Z"/></svg>