<svg id="Layer_1" data-name="Layer 1" xmlns="http://www.w3.org/2000/svg" viewBox="0 0 2834.65 2834.65"><defs><style>.cls-1{fill:none;}.cls-2{fill:#fff;}</style></defs><title>Perception</title><path class="cls-1" d="M1992.91,1417.32c0,1.24,0,2.48,0,3.72a568.64,568.64,0,0,1-6.62,83.94q-.81,5.36-1.74,10.68c-.09.55-.19,1.09-.29,1.63-.13.79-.27,1.59-.42,2.39-.21,1.17-.42,2.35-.64,3.53-26.14,139.59-103.26,262.16-211,347.32-98.31,77.73-222.13,124.32-356,124.32-316.37,0-576.72-260.33-576.72-576.71s260.35-576.71,576.72-576.71a569.71,569.71,0,0,1,92.34,7.5l2.41.39c270.8,45.55,480.13,282.61,482,565.12C1992.91,1415.4,1992.91,1416.36,1992.91,1417.32Z"/><path class="cls-1" d="M1992.91,1417.32c0,1.24,0,2.48,0,3.72a568.64,568.64,0,0,1-6.62,83.94q-.81,5.36-1.74,10.68c-.09.55-.19,1.09-.29,1.63-.13.79-.27,1.59-.42,2.39-.21,1.17-.42,2.35-.64,3.53-26.14,139.59-103.26,262.16-211,347.32-98.31,77.73-222.13,124.32-356,124.32-316.37,0-576.72-260.33-576.72-576.71s260.35-576.71,576.72-576.71a569.71,569.71,0,0,1,92.34,7.5l2.41.39c270.8,45.55,480.13,282.61,482,565.12C1992.91,1415.4,1992.91,1416.36,1992.91,1417.32Z"/><path class="cls-2" d="M1843.73,1446.24a424.14,424.14,0,0,1-24.3,116.27,4,4,0,0,1-2,2.26c-17.29,8.25-35.52,16.09-55.5,24.14-24.82,10-47.81,17.45-70,24.23a4,4,0,0,1-5-4.82c6.11-23.48,12.34-50.58,16.35-79.46,4.2-30.18,4.57-58,4.95-82.94a4,4,0,0,1,4-3.93h127.63A4,4,0,0,1,1843.73,1446.24Z"/><path class="cls-2" d="M1649.52,1442a4,4,0,0,1,4,4.17c-1.44,29.92-4.27,62.45-9.13,97.12-4.31,30.7-8.77,58.06-14.61,84.26a4,4,0,0,1-2.89,3c-27.88,7.3-57.68,12.78-90.93,18-31,4.84-60.09,7.77-87.07,9.35a4,4,0,0,1-4.21-4L1443.34,1446a4,4,0,0,1,4-4Z"/><path class="cls-2" d="M1610.9,1684.31a4,4,0,0,1,4.79,5c-7,22.71-14.89,46.06-25.13,71.44-8.16,20.23-15.74,38.43-24.06,55.93a4,4,0,0,1-2.25,2,424.85,424.85,0,0,1-118.26,25,4,4,0,0,1-4.25-4V1711.36a4,4,0,0,1,3.92-4,732.74,732.74,0,0,0,90-7.42C1562.9,1696.07,1588.39,1690,1610.9,1684.31Z"/><path class="cls-2" d="M1797.34,1613.14a429.23,429.23,0,0,1-183.83,184,4,4,0,0,1-5.26-5.61c9.48-15.61,19.15-32.64,28.29-50.75,13.15-26.06,22.92-50.13,31.56-72.94a3.93,3.93,0,0,1,2.35-2.32,710.25,710.25,0,0,0,67.52-28.4c19.24-9.37,37.32-19.4,53.77-29.24A4,4,0,0,1,1797.34,1613.14Z"/><path class="cls-2" d="M1615.14,1143.29a4,4,0,0,1-4.82,5c-23.48-6.11-50.58-12.34-79.46-16.35-30.18-4.19-58-4.57-82.94-4.94a4,4,0,0,1-3.93-4V995.18a4,4,0,0,1,4.27-4,424.61,424.61,0,0,1,118,25.56h0c8.42,17.59,16.42,36.14,24.62,56.52C1600.88,1098.07,1608.36,1121.07,1615.14,1143.29Z"/><path class="cls-2" d="M1655.92,1390.49,1448,1391.8a4,4,0,0,1-4-4V1185.63a4,4,0,0,1,4.17-4c29.92,1.44,62.45,4.26,97.12,9.13,30.7,4.3,58.06,8.77,84.26,14.6a4,4,0,0,1,3,2.89c7.3,27.89,12.78,57.69,18,90.93,4.84,31,7.77,60.1,9.35,87.08A4,4,0,0,1,1655.92,1390.49Z"/><path class="cls-2" d="M1839.79,1393.4H1713.36a4,4,0,0,1-4-3.92,732.59,732.59,0,0,0-7.42-90c-3.89-27.2-9.92-52.69-15.65-75.19a4,4,0,0,1,5-4.79c22.71,7,46.06,14.88,71.44,25.13,19.36,7.82,36.87,15.08,53.67,23a4,4,0,0,1,2.06,2.25,424.15,424.15,0,0,1,25.25,119.33A4,4,0,0,1,1839.79,1393.4Z"/><path class="cls-2" d="M1796.52,1220.05a4,4,0,0,1-5.59,5.28c-14.9-9-31-18.1-48.16-26.73a737.94,737.94,0,0,0-72.94-31.55,3.93,3.93,0,0,1-2.32-2.35,711.46,711.46,0,0,0-28.4-67.53c-9.18-18.86-19-36.59-28.66-52.79a4,4,0,0,1,5.29-5.58A429.27,429.27,0,0,1,1796.52,1220.05Z"/><path class="cls-2" d="M1145.28,1220a4,4,0,0,1,5,4.81c-6.11,23.49-12.34,50.59-16.35,79.46-4.19,30.18-4.57,58-4.94,83a4,4,0,0,1-4,3.93H995.18a4,4,0,0,1-4-4.26,424.92,424.92,0,0,1,24.42-115.27,4,4,0,0,1,2-2.25c17.92-8.62,36.81-16.78,57.61-25.14C1100.07,1234.26,1123.07,1226.79,1145.28,1220Z"/><path class="cls-2" d="M1389.81,1391.16H1187.63a4,4,0,0,1-4-4.17c1.44-29.92,4.26-62.44,9.13-97.12,4.3-30.71,8.77-58.07,14.6-84.26a4,4,0,0,1,2.89-3c27.89-7.31,57.69-12.79,90.93-18,31-4.86,60.1-7.78,87.08-9.36a4,4,0,0,1,4.22,4l1.31,207.91A4,4,0,0,1,1389.81,1391.16Z"/><path class="cls-2" d="M1395.4,994.88v126.9a4,4,0,0,1-3.92,4,730.78,730.78,0,0,0-90,7.43c-27.2,3.89-52.69,9.91-75.19,15.64a4,4,0,0,1-4.79-5c7-22.7,14.88-46.06,25.13-71.45,8.25-20.44,15.89-38.81,24.31-56.48h0a425.8,425.8,0,0,1,120.26-25A4,4,0,0,1,1395.4,994.88Z"/><path class="cls-2" d="M1223.28,1036.62a4,4,0,0,1,5.25,5.62c-9.38,15.45-18.91,32.26-27.93,50.13a740,740,0,0,0-31.55,72.94,3.93,3.93,0,0,1-2.35,2.32,706.72,706.72,0,0,0-67.53,28.42c-20.08,9.77-38.89,20.27-55.92,30.53a4,4,0,0,1-5.6-5.27A429.15,429.15,0,0,1,1223.28,1036.62Z"/><path class="cls-2" d="M1393.16,1710.11v129.64a4,4,0,0,1-4.25,4A424.33,424.33,0,0,1,1273.86,1820a4,4,0,0,1-2.27-2c-8.69-18-16.92-37.09-25.35-58-10-24.82-17.45-47.81-24.23-70a4,4,0,0,1,4.81-5c23.49,6.11,50.59,12.34,79.46,16.35,30.18,4.2,58,4.57,83,4.95A4,4,0,0,1,1393.16,1710.11Z"/><path class="cls-2" d="M1393.16,1445.33v202.19a4,4,0,0,1-4.17,4c-29.92-1.44-62.44-4.27-97.12-9.13-30.71-4.31-58.08-8.77-84.26-14.61a4,4,0,0,1-3-2.89c-7.31-27.88-12.79-57.68-18-90.93-4.86-31-7.78-60.09-9.36-87.07a4,4,0,0,1,4-4.21l207.91-1.33A4,4,0,0,1,1393.16,1445.33Z"/><path class="cls-2" d="M1150.84,1608.9a4,4,0,0,1-5,4.79c-22.7-7-46.06-14.89-71.45-25.13-20.73-8.36-39.33-16.11-57.22-24.68a4,4,0,0,1-2-2.27A424.4,424.4,0,0,1,990.93,1444a4,4,0,0,1,4-4.23h128.85a4,4,0,0,1,4,3.92,730.93,730.93,0,0,0,7.43,90C1139.09,1560.9,1145.11,1586.4,1150.84,1608.9Z"/><path class="cls-2" d="M1223.91,1798.47A429.22,429.22,0,0,1,1036,1610.27a4,4,0,0,1,5.65-5.23c16.15,9.87,33.84,20,52.72,29.5,26.07,13.15,50.14,22.92,72.94,31.56a3.93,3.93,0,0,1,2.32,2.35,705.53,705.53,0,0,0,28.42,67.52c10,20.47,20.67,39.62,31.11,56.89A4,4,0,0,1,1223.91,1798.47Z"/><path class="cls-2" d="M1417.32,755.94c-742.7,0-1331.14,661.38-1331.14,661.38s588.44,661.39,1331.14,661.39,1331.14-661.39,1331.14-661.39S2160,755.94,1417.32,755.94ZM1992.9,1421a568.64,568.64,0,0,1-6.62,83.94q-.81,5.36-1.74,10.68c-.09.55-.19,1.09-.29,1.63-.13.8-.27,1.59-.42,2.39-.21,1.18-.42,2.35-.64,3.53-26.08,140.28-103,262.68-211,347.32-98.31,77.73-222.13,124.32-356,124.32-316.37,0-576.72-260.33-576.72-576.71s260.35-576.71,576.72-576.71a569.71,569.71,0,0,1,92.34,7.5l2.41.39c272.44,44.57,480.56,280.41,482,565.12,0,1,0,1.92,0,2.88C1992.91,1418.56,1992.91,1419.8,1992.9,1421Z"/></svg>