<svg id="Layer_1" data-name="Layer 1" xmlns="http://www.w3.org/2000/svg" viewBox="0 0 441.41 195.68"><defs><style>.cls-1{fill:#fff;}</style></defs><title>norbit_hvit</title><path class="cls-1" d="M62.88,55.31,80.7,82.85h.2V55.31h34.24v83H89.21L72.8,112.7h-.2v25H38.41V55.31Z" transform="translate(-38.41 -54.01)"/><path class="cls-1" d="M159.8,54a37.23,37.23,0,0,1,20.11,5.72,40,40,0,0,1,14.33,15.44,44.07,44.07,0,0,1,5.22,21.27,44.9,44.9,0,0,1-5.22,21.38,39.79,39.79,0,0,1-14.33,15.55,38.4,38.4,0,0,1-40.16,0,39.88,39.88,0,0,1-14.33-15.5,46.5,46.5,0,0,1-.1-42.6,39.88,39.88,0,0,1,14.33-15.5A37.23,37.23,0,0,1,159.8,54Zm-7.65,40.23a8.9,8.9,0,0,0,2.18,6.26,7.48,7.48,0,0,0,10.94,0,9,9,0,0,0,2.23-6.26,10.09,10.09,0,0,0-.58-3.48,8.36,8.36,0,0,0-1.6-2.73,7.21,7.21,0,0,0-2.46-1.78,7.52,7.52,0,0,0-3.11-.65A7,7,0,0,0,154.33,88,8.83,8.83,0,0,0,152.15,94.24Z" transform="translate(-38.41 -54.01)"/><path class="cls-1" d="M255.66,55.31a31.35,31.35,0,0,1,14.69,3.35,22.62,22.62,0,0,1,9.67,9A24.2,24.2,0,0,1,283.26,80,23.42,23.42,0,0,1,281,90.35a21.56,21.56,0,0,1-6.56,7.88,60.33,60.33,0,0,1,10.05,17.52,85.72,85.72,0,0,1,4.89,21.95h-35.5q-1.06-16.31-4.51-23.38T239,107.2h-.2V137.7H204.66V55.31ZM238.84,88.14h.81q4.91,0,7.14-1.84T249,80.42a8.33,8.33,0,0,0-2.08-5.94,7.94,7.94,0,0,0-6.08-2.21h-2Z" transform="translate(-38.41 -54.01)"/><path class="cls-1" d="M339.21,55.31q14,0,21.73,6t7.8,17a19.87,19.87,0,0,1-2.61,10.5A21.39,21.39,0,0,1,358.66,96a26.54,26.54,0,0,1,9.07,7.8,19,19,0,0,1,3.09,11.1q0,10.64-7,16.68t-18.89,6.1H290.39V55.31ZM324.62,87.92h1a21.88,21.88,0,0,0,4.71-.43,7.63,7.63,0,0,0,3.14-1.4,5.4,5.4,0,0,0,1.75-2.51,11.37,11.37,0,0,0,.53-3.7q0-4.21-2.3-6.1a10.09,10.09,0,0,0-6.56-1.89h-2.23Zm0,31.64H326q5.57,0,8.05-1.94t2.48-6.59q0-9.29-9.57-9.29h-2.38Z" transform="translate(-38.41 -54.01)"/><path class="cls-1" d="M408.63,55.31V137.7H374.45V55.31Z" transform="translate(-38.41 -54.01)"/><path class="cls-1" d="M479.83,55.31v36.5H462.61V137.7H428.37V91.81H411.15V55.31Z" transform="translate(-38.41 -54.01)"/><path class="cls-1" d="M72.9,194a4.14,4.14,0,0,1,3.79,1.76,6.3,6.3,0,0,1,1,3.78c0,.36-.07.54-.21.54s-.28-.11-.43-.32a3.3,3.3,0,0,0-1.49-1.28,7.22,7.22,0,0,0-2.77-.43,13,13,0,0,0-3.73.49,15.64,15.64,0,0,1-4.27.48,6.73,6.73,0,0,1-2-.37,3.61,3.61,0,0,1-1.71-1,.38.38,0,0,1,0-.53.26.26,0,0,1,.43,0,3.87,3.87,0,0,0,1.71.43,6.47,6.47,0,0,0,2.83-.64,23.09,23.09,0,0,0,2.51-1.39,13.64,13.64,0,0,1,2-1A6,6,0,0,1,72.9,194Z" transform="translate(-38.41 -54.01)"/><path class="cls-1" d="M105.64,205.88a15,15,0,0,0,3.63-.75,22,22,0,0,0,6.08-3.19q1.5-1.07,3.26-2.4c1.17-.89,2.26-1.8,3.26-2.72.56-.49,1-.64,1.17-.43s-.07.75-.86,1.38-1.76,1.54-3.15,2.67a40.22,40.22,0,0,1-3.57,2.66q-6.61,4.37-12.05,4.37-5.87,0-5.66-4.27.11-3,3.2-6.61l-.11-.1c-.14.14-.44.43-.91.85s-.87.78-1.22,1.07-.86.54-1.07.32-.13-.32.05-.53a8,8,0,0,1,.59-.64c.71-.64,1.35-1.19,1.92-1.66s1.24-1,2-1.55a26.79,26.79,0,0,1,2.29-1.49c1-.56,1.94-1.14,2.93-1.7,1.56-.79,3.13-1.48,4.69-2.08a12.35,12.35,0,0,1,4.48-.91h.11a3,3,0,0,1,2.5.91,2.71,2.71,0,0,1,.59,2,5.35,5.35,0,0,1-2.3,3.73,25.28,25.28,0,0,1-4.53,2.78,38.63,38.63,0,0,1-4.85,2c-1.68.57-3.11,1-4.32,1.39a5.51,5.51,0,0,0-.64,2.46A2.16,2.16,0,0,0,105.64,205.88Zm-1.17-6.08a31.94,31.94,0,0,0,3.57-1.22,19.57,19.57,0,0,0,3.68-2,13.08,13.08,0,0,0,3.15-2.88,5.45,5.45,0,0,0,1.22-2.66c.14-1-.28-1.49-1.28-1.49s-2.49,1-4.7,3.1a28.23,28.23,0,0,0-3,3.36A38.64,38.64,0,0,0,104.47,199.8Z" transform="translate(-38.41 -54.01)"/><path class="cls-1" d="M132.2,201.3a22.09,22.09,0,0,1-3.42,3.89,6.65,6.65,0,0,1-4.58,2,4.9,4.9,0,0,1-3.09-.91,3.17,3.17,0,0,1-1-3,4.82,4.82,0,0,1,1.33-3,3.75,3.75,0,0,1,2.83-1.34,2.2,2.2,0,0,1,1.81.8,1.76,1.76,0,0,1,.21,1.87,2.63,2.63,0,0,1-1.07,1.34,2.15,2.15,0,0,0-1,1.34,1,1,0,0,0,.21,1,1.14,1.14,0,0,0,.86.32q1.92,0,3.89-2.24a49.06,49.06,0,0,0,3.78-4.9q1.17-1.71,2.14-3.26a10.17,10.17,0,0,0,1.28-2.83q.42-2-1.28-2.34a5.91,5.91,0,0,0-4.11,1c-1.46.89-2.76,1.76-3.89,2.61q-1.39,1.07-2.61,2.14c-.82.71-1.58,1.38-2.3,2l-1.12.91c-.32.24-.55.3-.69.16s.22-.82,1.28-1.81q1.28-1.17,3-2.61t3-2.4a25,25,0,0,1,3.78-2.4,10,10,0,0,1,4.75-1.22,5.17,5.17,0,0,1,1.76.32,5.11,5.11,0,0,1,1.65,1,3.54,3.54,0,0,1,1.07,1.76,5.82,5.82,0,0,1,0,2.72h.1a37.47,37.47,0,0,1,4-3.84,7,7,0,0,1,4.43-1.92,2.86,2.86,0,0,1,2.5,1.12,3.16,3.16,0,0,1,.48,2.61,3.38,3.38,0,0,1-1.23,2,3.32,3.32,0,0,1-2.18.86,2,2,0,0,1-1.18-.37,1.2,1.2,0,0,1-.43-1.23,1.75,1.75,0,0,1,.48-1,2.61,2.61,0,0,0,.59-1c.14-.57-.14-.85-.86-.85a3.38,3.38,0,0,0-1.87.69A16.14,16.14,0,0,0,143.4,193a24.59,24.59,0,0,0-1.81,1.81,33.21,33.21,0,0,0-2.24,2.88c-.57.78-1.12,1.62-1.65,2.51a8.14,8.14,0,0,0-1,2.29,3.83,3.83,0,0,0-.11,2,1.4,1.4,0,0,0,1.18,1,6.62,6.62,0,0,0,3.95-.8,24.57,24.57,0,0,0,4.69-2.83,30.55,30.55,0,0,0,3.31-2.66c1-.92,1.81-1.67,2.45-2.24.43-.43.79-.53,1.07-.32s-.07.61-.64,1.17-1.55,1.41-2.51,2.3-2,1.75-3.15,2.61a44.29,44.29,0,0,1-4.48,2.93,11,11,0,0,1-5.55,1.55,5.18,5.18,0,0,1-3.89-1.49Q131.56,204.18,132.2,201.3Z" transform="translate(-38.41 -54.01)"/><path class="cls-1" d="M163.24,188.07q-3.74,3.41-6.56,6l-4.11,3.73q-1.39,1.29-1.71,1c-.14-.14-.07-.39.22-.75a10.26,10.26,0,0,1,1.28-1.28q1.82-1.6,3.79-3.42t3.47-3.31c1-.92,2.41-2.22,4.27-3.89s3.66-3.32,5.44-5a10.36,10.36,0,0,1,1.92-1.49,4.3,4.3,0,0,1,2.24-.63c1.21,0,1.73.17,1.55.53a14.52,14.52,0,0,1-1.65,2.14q-2.35,2.77-5.49,6.67t-6.72,8.53q-3.57,4.64-7.46,9.76T146,217q-3.52,4.8-5.92,8.11t-4.43,6.19q-2,2.88-4.05,5.92t-4.69,7.2a6.65,6.65,0,0,0-.75,1.49.65.65,0,0,0,.1.64c.29.29.75.07,1.39-.64.36-.43.84-1.05,1.44-1.87l2.08-2.82q1.17-1.6,2.4-3.42t2.4-3.41q1.71-2.45,5.06-6.94l7.2-9.59q3.31-4.37,6.56-8.54t6.35-7.79q2.13-2.45,4.69-5a48.69,48.69,0,0,1,4.69-4.11,33.84,33.84,0,0,1,4.59-2.88,10,10,0,0,1,4.59-1.28q3.52,0,3.2,2.77a6.64,6.64,0,0,1-1.55,3q-1.33,1.67-2.83,3.37l-2.24,2.61a16.85,16.85,0,0,0-1.49,2c-.78,1.21-.89,2-.32,2.46s1.53.31,2.88-.32c.64-.36,1.37-.78,2.19-1.28a28.5,28.5,0,0,0,2.72-1.92q1.49-1.17,2.66-2.19c.78-.68,1.53-1.33,2.24-2a5.42,5.42,0,0,1,.91-.75c.32-.22.55-.25.69-.11s.07.37-.21.69-.5.56-.64.69-.69.66-1.22,1.12L184.95,200c-.6.54-1.22,1.05-1.87,1.55s-1.21,1-1.71,1.39a44.31,44.31,0,0,1-4.27,2.78,10.5,10.5,0,0,1-5.33,1.49,3.51,3.51,0,0,1-2.83-1,2.49,2.49,0,0,1-.59-2.14,7.51,7.51,0,0,1,1.71-3.62q1.49-1.93,3-3.52c.86-1,1.74-2,2.67-3a18.38,18.38,0,0,0,1.92-2.34c.43-.71.43-1.17,0-1.39a1.25,1.25,0,0,0-1,0,9.06,9.06,0,0,0-1.33.53,34.24,34.24,0,0,0-5.28,3.36,44.89,44.89,0,0,0-5.82,5.49q-1.28,1.39-3,3.52l-3.84,4.69q-2.08,2.57-4.27,5.39t-4.32,5.7q-3.52,4.8-7,9.44t-5.92,8.16c-.85,1.28-1.72,2.54-2.61,3.78s-1.74,2.42-2.56,3.52-1.56,2.06-2.24,2.87a14.91,14.91,0,0,1-1.76,1.86,6.77,6.77,0,0,1-1.44.91,2.37,2.37,0,0,1-1.65.16,2,2,0,0,1-1.81-2.24,9.23,9.23,0,0,1,1.23-4.16c.82-1.56,1.76-3.17,2.83-4.8l2.93-4.37q1.44-2.14,3.15-4.53t3.84-5.33q2.14-2.94,5-6.78c1.28-1.77,2.92-4,4.9-6.61s4.07-5.36,6.24-8.17,4.27-5.5,6.29-8.1S161.89,189.78,163.24,188.07Z" transform="translate(-38.41 -54.01)"/><path class="cls-1" d="M192.25,193.41c-.78.71-1.56,1.4-2.34,2.07s-1.46,1.3-2,1.87-1,.61-1.17.32.1-.53.53-1c.07-.08.37-.34.91-.81l1.92-1.65,2.4-2.08c.85-.75,1.71-1.48,2.56-2.19s1.55-1.88,2.51-3.09l3.09-3.9q1.65-2.07,3.46-4.21c1.21-1.42,2.38-2.77,3.52-4.05,1.85-2.14,3.84-4.33,6-6.61s4.37-4.48,6.72-6.61a5.94,5.94,0,0,1,3.84-1.81c1.06,0,1.6.24,1.6.75-.49.49-1.4,1.46-2.72,2.87s-2.76,3-4.32,4.75-3.15,3.52-4.74,5.34-3,3.39-4.11,4.74q-2.67,3.2-5.39,6.61c-1.81,2.28-3.48,4.44-5,6.51s-2.88,4-4.05,5.82a40.29,40.29,0,0,0-2.61,4.53,15,15,0,0,0-.48,1.44,1.36,1.36,0,0,0,.26,1.44,1.65,1.65,0,0,0,1.55.1,9.22,9.22,0,0,0,1.76-.75,13.71,13.71,0,0,0,2.14-1.34c.71-.53,1.45-1.09,2.24-1.65q1.49-1.17,2.56-2.08c.71-.6,1.42-1.22,2.13-1.87a6.76,6.76,0,0,1,.86-.69c.35-.24.6-.3.75-.16s-.11.64-.75,1.28-1.57,1.48-2.77,2.51-2.46,2-3.73,3c-.57.43-1.21.89-1.92,1.39a18.71,18.71,0,0,1-2.35,1.39,17.6,17.6,0,0,1-2.66,1.07,9.28,9.28,0,0,1-2.66.43,4.05,4.05,0,0,1-2.51-.69,2.35,2.35,0,0,1-.8-2.19,11.25,11.25,0,0,1,1.81-4.8,53.64,53.64,0,0,1,4.16-6Z" transform="translate(-38.41 -54.01)"/><path class="cls-1" d="M206.55,196.71a8.46,8.46,0,0,0-1,.85c-.71.64-1.18.85-1.39.64s-.1-.34.11-.59.43-.48.64-.69.86-.8,1.49-1.34a17.43,17.43,0,0,1,1.81-1.33c.71-.49,1.46-1,2.24-1.49a32.19,32.19,0,0,1,2.88-1.6,37.3,37.3,0,0,1,4.69-2,16.09,16.09,0,0,1,4.16-.9c.35,0,.71,0,1.06.05s.53.16.53.37-.39.29-1.17.64a15.88,15.88,0,0,0-3.68,2.29c-1.17,1-2.51,2.15-4,3.57a33.46,33.46,0,0,0-4.16,5.07,11.46,11.46,0,0,0-2,4.32c-.14,1.21.36,1.81,1.49,1.81a9.2,9.2,0,0,0,4.64-1.87,27,27,0,0,0,5.28-4.64,10.49,10.49,0,0,1,.48-2,8.91,8.91,0,0,1,1.44-2.51,7.69,7.69,0,0,1,1.87-1.87,9,9,0,0,1,1.55-.9,4.35,4.35,0,0,0,.27-1.28q.05-.74.05-1.17a2.86,2.86,0,0,0-.16-1.17.43.43,0,0,1,.06-.54.66.66,0,0,1,.75.05,4.3,4.3,0,0,1,.75.59,5.22,5.22,0,0,1,1.06,1.59,3.51,3.51,0,0,1,.22,2.11A8.58,8.58,0,0,1,226.6,197a34.14,34.14,0,0,1-4.16,4.44,1.59,1.59,0,0,0,1,.16,4.6,4.6,0,0,0,1-.16,9.57,9.57,0,0,0,3.62-1.78q1.07-.73,1.81-1.3a21.12,21.12,0,0,0,1.6-1.41c1-.91,1.6-1.26,1.81-1.05s-.25.86-1.38,1.92l-1.55,1.34a23.53,23.53,0,0,1-1.87,1.44,14.56,14.56,0,0,1-2.24,1.28,10.61,10.61,0,0,1-1.81.64,4.21,4.21,0,0,1-1.55.16,2.88,2.88,0,0,1-1.33-.37,29.48,29.48,0,0,1-2.45,1.76,24.24,24.24,0,0,1-3,1.66,25.83,25.83,0,0,1-3.36,1.28,11.62,11.62,0,0,1-3.36.54,6,6,0,0,1-3.89-1.18,4,4,0,0,1-1.33-3.52q.21-3.41,3.42-6.83l-.11-.1A10.13,10.13,0,0,1,206.55,196.71Z" transform="translate(-38.41 -54.01)"/><path class="cls-1" d="M250.06,191.17a4.41,4.41,0,0,1-1.55,2.66q-1.55,1.6-3.36,3.73a25.15,25.15,0,0,0-3.63,5q-.85,1.5-.1,2c.43.36,1.21.21,2.35-.43.56-.36,1.29-.8,2.18-1.34a20.12,20.12,0,0,0,2.61-1.87q1.82-1.38,2.88-2.29c.71-.61,1.42-1.22,2.14-1.87s1.31-1.07,1.6-.86.07.37-.21.69-.64.69-1.07,1.12L251.4,200q-1.55,1.39-3.58,2.88a43.78,43.78,0,0,1-4.27,2.78,10.32,10.32,0,0,1-5.23,1.49,3.64,3.64,0,0,1-2.56-.8,2.31,2.31,0,0,1-.75-2,7,7,0,0,1,1.71-3.84,33.88,33.88,0,0,1,3.42-3.73,26.79,26.79,0,0,1,2.13-1.92c.79-.64,1.51-1.23,2.19-1.76s1.26-1,1.76-1.44a2.88,2.88,0,0,0,.85-1c.22-.56-.1-.85-1-.85h-4.74a2.17,2.17,0,0,1-1-.22q-1.39,1.5-4.05,4.05-1.39,1.29-2.4,2.19c-.68.61-1.3,1.2-1.87,1.76-.85.78-1.38,1.07-1.6.85s.18-.78,1.17-1.7c.64-.57,1.24-1.12,1.81-1.66l2.34-2.19q2.35-2.24,3.73-3.73a1.87,1.87,0,0,1-.8-1.49,2.69,2.69,0,0,1,.8-1.92,5,5,0,0,1,4.05-1.81,3,3,0,0,1,1.23.27,1.11,1.11,0,0,1,.69.8c-.36.29-.66.52-.91.69a7.82,7.82,0,0,0-.91.8q-2,2.14.32,2.34c1.49.08,2.88.2,4.16.37s1.92.77,1.92,1.76Z" transform="translate(-38.41 -54.01)"/><path class="cls-1" d="M260.09,205.88a15,15,0,0,0,3.63-.75,22,22,0,0,0,6.08-3.19q1.5-1.07,3.26-2.4c1.17-.89,2.26-1.8,3.26-2.72.56-.49,1-.64,1.17-.43s-.07.75-.86,1.38-1.76,1.54-3.15,2.67a40.22,40.22,0,0,1-3.57,2.66q-6.61,4.37-12.05,4.37-5.87,0-5.66-4.27.11-3,3.2-6.61l-.11-.1c-.14.14-.44.43-.91.85s-.87.78-1.22,1.07-.86.54-1.07.32-.13-.32.05-.53a8,8,0,0,1,.59-.64c.71-.64,1.35-1.19,1.92-1.66s1.24-1,2-1.55a26.79,26.79,0,0,1,2.29-1.49c1-.56,1.94-1.14,2.93-1.7,1.56-.79,3.13-1.48,4.69-2.08a12.35,12.35,0,0,1,4.48-.91h.11a3,3,0,0,1,2.5.91,2.71,2.71,0,0,1,.59,2,5.35,5.35,0,0,1-2.3,3.73,25.28,25.28,0,0,1-4.53,2.78,38.63,38.63,0,0,1-4.85,2c-1.68.57-3.11,1-4.32,1.39a5.51,5.51,0,0,0-.64,2.46A2.16,2.16,0,0,0,260.09,205.88Zm-1.17-6.08a31.94,31.94,0,0,0,3.57-1.22,19.57,19.57,0,0,0,3.68-2,13.08,13.08,0,0,0,3.15-2.88,5.45,5.45,0,0,0,1.22-2.66c.14-1-.28-1.49-1.28-1.49s-2.49,1-4.7,3.1a28.23,28.23,0,0,0-3,3.36A38.64,38.64,0,0,0,258.91,199.8Z" transform="translate(-38.41 -54.01)"/><path class="cls-1" d="M298.27,191.8a25.86,25.86,0,0,1,3.84-2.61,7.27,7.27,0,0,1,3.42-.9,2.51,2.51,0,0,1,2.08.75,2.54,2.54,0,0,1,.59,1.6,4.23,4.23,0,0,1-.59,2,26.59,26.59,0,0,1-1.65,2.55c-.79,1.07-1.67,2.25-2.67,3.52s-1.78,2.34-2.34,3.2l.1.1,4.48-3.73q2.56-2.14,5.33-4.27a51.57,51.57,0,0,1,6-3.94,11.62,11.62,0,0,1,5.55-1.81,3.8,3.8,0,0,1,2.83.85,2.54,2.54,0,0,1,.59,2.24,6.61,6.61,0,0,1-1.49,2.88q-1.28,1.6-2.66,3.2c-.93,1.06-1.68,2-2.24,2.66s-1.1,1.38-1.6,2l.1.1c1.21-1.06,2.72-2.34,4.54-3.84s3.64-3,5.49-4.37a51.14,51.14,0,0,1,6-3.94,11.73,11.73,0,0,1,5.65-1.81,3.78,3.78,0,0,1,2.67.8,2.18,2.18,0,0,1,.64,2.08,6.81,6.81,0,0,1-1.6,3.19c-.93,1.14-1.81,2.24-2.67,3.31s-1.56,1.9-2.13,2.72-1,1.48-1.39,2q-1.17,1.81-.43,2.34a1.26,1.26,0,0,0,1.17.1,7.55,7.55,0,0,0,1.39-.53q1-.53,2.13-1.22a33.1,33.1,0,0,0,3-2.08q1.39-1.07,2.83-2.29t2.29-2.08c.71-.64,1.17-.85,1.38-.64s-.14.68-.85,1.39q-.75.76-2.72,2.51t-3.68,3c-.57.43-1.22.89-2,1.39a22.84,22.84,0,0,1-2.4,1.39,19,19,0,0,1-2.61,1.07,8.79,8.79,0,0,1-2.62.43q-3.41,0-3.2-2.78a7,7,0,0,1,1.6-3.78c1-1.31,2-2.54,2.88-3.68s1.55-1.92,2.3-2.77,1.48-1.68,2.18-2.46a2.46,2.46,0,0,0,.43-.85.52.52,0,0,0-.32-.64,1.67,1.67,0,0,0-1.17,0,8.93,8.93,0,0,0-1.6.64q-1.5.74-3.62,2.07a54.56,54.56,0,0,0-4.7,3.36q-1.82,1.39-3.2,2.56c-.92.79-1.85,1.55-2.77,2.29l-2.83,2.3L314.81,206a4.57,4.57,0,0,1-2.77,1,2.51,2.51,0,0,1-1.6-.32c-.21-.21-.14-.67.21-1.38a36.18,36.18,0,0,1,2.51-4.11q1.65-2.4,3.15-4.21c.92-1.14,1.81-2.15,2.66-3a14.29,14.29,0,0,0,1.81-2.19,1.87,1.87,0,0,0,.37-.85c0-.29-.13-.5-.48-.64a4.72,4.72,0,0,0-2.66.64q-1.5.74-3.68,2.13t-4.64,3.31q-1.82,1.39-3.2,2.56c-.92.79-1.85,1.55-2.77,2.29l-2.83,2.3L297.74,206a4.55,4.55,0,0,1-2.77,1,3.24,3.24,0,0,1-1.6-.27c-.29-.17-.21-.65.21-1.43a31.38,31.38,0,0,1,2-3.26l2.66-3.9c.78-1.14,1.55-2.14,2.3-3s1.4-1.72,2-2.51,1-1.53.75-1.81-.82-.31-1.6.11-1.33.78-2.08,1.28a20.6,20.6,0,0,0-2.08,1.6q-1.07.86-2.24,1.93l-2.34,2.13q-1.5,1.29-1.81,1c-.14-.22.39-.89,1.6-2,.64-.57,1.48-1.34,2.51-2.3S297.28,192.58,298.27,191.8Z" transform="translate(-38.41 -54.01)"/><path class="cls-1" d="M348.72,196.71a8.46,8.46,0,0,0-1,.85c-.71.64-1.18.85-1.39.64s-.1-.34.11-.59.43-.48.64-.69.86-.8,1.49-1.34a17.43,17.43,0,0,1,1.81-1.33c.71-.49,1.46-1,2.24-1.49a32.19,32.19,0,0,1,2.88-1.6,37.3,37.3,0,0,1,4.69-2,16.09,16.09,0,0,1,4.16-.9c.35,0,.71,0,1.06.05s.53.16.53.37-.39.29-1.17.64a15.88,15.88,0,0,0-3.68,2.29c-1.17,1-2.51,2.15-4,3.57a33.46,33.46,0,0,0-4.16,5.07,11.46,11.46,0,0,0-2,4.32c-.14,1.21.36,1.81,1.49,1.81a9.2,9.2,0,0,0,4.64-1.87,27,27,0,0,0,5.28-4.64,10.49,10.49,0,0,1,.48-2,8.91,8.91,0,0,1,1.44-2.51,7.69,7.69,0,0,1,1.87-1.87,9,9,0,0,1,1.55-.9,4.35,4.35,0,0,0,.27-1.28q.05-.74.05-1.17a2.86,2.86,0,0,0-.16-1.17.43.43,0,0,1,.06-.54.66.66,0,0,1,.75.05,4.3,4.3,0,0,1,.75.59,5.22,5.22,0,0,1,1.06,1.59,3.51,3.51,0,0,1,.22,2.11,8.58,8.58,0,0,1-1.92,4.13,34.14,34.14,0,0,1-4.16,4.44,1.59,1.59,0,0,0,1,.16,4.6,4.6,0,0,0,1-.16,9.57,9.57,0,0,0,3.62-1.78q1.07-.73,1.81-1.3a21.12,21.12,0,0,0,1.6-1.41c1-.91,1.6-1.26,1.81-1.05s-.25.86-1.38,1.92l-1.55,1.34a23.53,23.53,0,0,1-1.87,1.44,14.56,14.56,0,0,1-2.24,1.28,10.61,10.61,0,0,1-1.81.64,4.21,4.21,0,0,1-1.55.16,2.88,2.88,0,0,1-1.33-.37,29.48,29.48,0,0,1-2.45,1.76,24.24,24.24,0,0,1-3,1.66,25.83,25.83,0,0,1-3.36,1.28,11.62,11.62,0,0,1-3.36.54,6,6,0,0,1-3.89-1.18,4,4,0,0,1-1.33-3.52q.21-3.41,3.42-6.83l-.11-.1A10.13,10.13,0,0,1,348.72,196.71Z" transform="translate(-38.41 -54.01)"/><path class="cls-1" d="M392.24,191.17a4.41,4.41,0,0,1-1.55,2.66q-1.55,1.6-3.36,3.73a25.15,25.15,0,0,0-3.63,5q-.85,1.5-.1,2c.43.36,1.21.21,2.35-.43.56-.36,1.29-.8,2.18-1.34a20.12,20.12,0,0,0,2.61-1.87q1.82-1.38,2.88-2.29c.71-.61,1.42-1.22,2.14-1.87s1.31-1.07,1.6-.86.07.37-.21.69-.64.69-1.07,1.12l-2.5,2.24q-1.55,1.39-3.58,2.88a43.78,43.78,0,0,1-4.27,2.78,10.32,10.32,0,0,1-5.23,1.49,3.64,3.64,0,0,1-2.56-.8,2.31,2.31,0,0,1-.75-2,7,7,0,0,1,1.71-3.84,33.88,33.88,0,0,1,3.42-3.73,26.79,26.79,0,0,1,2.13-1.92c.79-.64,1.51-1.23,2.19-1.76s1.26-1,1.76-1.44a2.88,2.88,0,0,0,.85-1c.22-.56-.1-.85-1-.85h-4.74a2.17,2.17,0,0,1-1-.22q-1.39,1.5-4.05,4.05-1.39,1.29-2.4,2.19c-.68.61-1.3,1.2-1.87,1.76-.85.78-1.38,1.07-1.6.85s.18-.78,1.17-1.7c.64-.57,1.24-1.12,1.81-1.66l2.34-2.19q2.35-2.24,3.73-3.73a1.87,1.87,0,0,1-.8-1.49,2.69,2.69,0,0,1,.8-1.92,5,5,0,0,1,4.05-1.81,3,3,0,0,1,1.23.27,1.11,1.11,0,0,1,.69.8c-.36.29-.66.52-.91.69a7.82,7.82,0,0,0-.91.8q-2,2.14.32,2.34c1.49.08,2.88.2,4.16.37s1.92.77,1.92,1.76Z" transform="translate(-38.41 -54.01)"/><path class="cls-1" d="M402.27,205.88a15,15,0,0,0,3.63-.75,22,22,0,0,0,6.08-3.19q1.5-1.07,3.26-2.4c1.17-.89,2.26-1.8,3.26-2.72.56-.49,1-.64,1.17-.43s-.07.75-.86,1.38-1.76,1.54-3.15,2.67a40.22,40.22,0,0,1-3.57,2.66q-6.61,4.37-12.05,4.37-5.87,0-5.66-4.27.11-3,3.2-6.61l-.11-.1c-.14.14-.44.43-.91.85s-.87.78-1.22,1.07-.86.54-1.07.32-.13-.32.05-.53a8,8,0,0,1,.59-.64c.71-.64,1.35-1.19,1.92-1.66s1.24-1,2-1.55a26.79,26.79,0,0,1,2.29-1.49c1-.56,1.94-1.14,2.93-1.7,1.56-.79,3.13-1.48,4.69-2.08a12.35,12.35,0,0,1,4.48-.91h.11a3,3,0,0,1,2.5.91,2.71,2.71,0,0,1,.59,2,5.35,5.35,0,0,1-2.3,3.73,25.28,25.28,0,0,1-4.53,2.78,38.63,38.63,0,0,1-4.85,2c-1.68.57-3.11,1-4.32,1.39a5.51,5.51,0,0,0-.64,2.46A2.16,2.16,0,0,0,402.27,205.88Zm-1.17-6.08a31.94,31.94,0,0,0,3.57-1.22,19.57,19.57,0,0,0,3.68-2,13.08,13.08,0,0,0,3.15-2.88,5.45,5.45,0,0,0,1.22-2.66c.14-1-.28-1.49-1.28-1.49s-2.49,1-4.7,3.1a28.23,28.23,0,0,0-3,3.36A38.64,38.64,0,0,0,401.1,199.8Z" transform="translate(-38.41 -54.01)"/><path class="cls-1" d="M451,194a4.14,4.14,0,0,1,3.79,1.76,6.3,6.3,0,0,1,1,3.78c0,.36-.07.54-.21.54s-.28-.11-.43-.32a3.3,3.3,0,0,0-1.49-1.28,7.22,7.22,0,0,0-2.77-.43,13,13,0,0,0-3.73.49,15.64,15.64,0,0,1-4.27.48,6.73,6.73,0,0,1-2-.37,3.61,3.61,0,0,1-1.71-1,.38.38,0,0,1,0-.53.26.26,0,0,1,.43,0,3.87,3.87,0,0,0,1.71.43,6.47,6.47,0,0,0,2.83-.64,23.09,23.09,0,0,0,2.51-1.39,13.64,13.64,0,0,1,2-1A6,6,0,0,1,451,194Z" transform="translate(-38.41 -54.01)"/></svg>