<svg id="Layer_1" data-name="Layer 1" xmlns="http://www.w3.org/2000/svg" viewBox="0 0 170.11 175"><defs><style>.cls-1,.cls-2{fill:#fff;stroke:#fff;stroke-miterlimit:10;}.cls-2{stroke-width:24px;}</style></defs><title>admin-white</title><path class="cls-1" d="M228.44,237.22A34.44,34.44,0,1,1,194,202.78,34.44,34.44,0,0,1,228.44,237.22Z" transform="translate(-58.83 -202.28)"/><path class="cls-1" d="M228.44,342.33A34.44,34.44,0,1,1,194,307.89,34.44,34.44,0,0,1,228.44,342.33Z" transform="translate(-58.83 -202.28)"/><path class="cls-1" d="M128.22,289.78a34.45,34.45,0,1,1-34.44-34.45A34.44,34.44,0,0,1,128.22,289.78Z" transform="translate(-58.83 -202.28)"/><line class="cls-2" x1="34.95" y1="87.49" x2="135.17" y2="142.05"/><line class="cls-2" x1="135.17" y1="36.94" x2="34.95" y2="87.49"/></svg>