<svg id="Layer_1" data-name="Layer 1" xmlns="http://www.w3.org/2000/svg" viewBox="0 0 193.09 193.07"><defs><style>.cls-1{fill:#333;}</style></defs><title>hardware</title><path class="cls-1" d="M138.23,104.09c-.24,13.13-8.21,25.16-20.72,29.71a31.66,31.66,0,1,1,20.72-29.71c.14,7.71,12.14,7.74,12,0A44.31,44.31,0,0,0,121.32,63c-17.12-6.31-37.16-.58-48.56,13.57A43.59,43.59,0,0,0,115,146.91c20.51-3.73,34.91-22.37,35.27-42.81C150.37,96.37,138.37,96.37,138.23,104.09Z" transform="translate(-63.05 -60.48)"/><path class="cls-1" d="M244.14,104.09c-.24,13.13-8.21,25.16-20.72,29.71a31.66,31.66,0,1,1,20.72-29.71c.14,7.71,12.14,7.74,12,0A44.31,44.31,0,0,0,227.24,63c-17.12-6.31-37.16-.58-48.56,13.57a43.59,43.59,0,0,0,42.2,70.31c20.51-3.73,34.91-22.37,35.27-42.81C256.28,96.37,244.28,96.37,244.14,104.09Z" transform="translate(-63.05 -60.48)"/><path class="cls-1" d="M138.23,210c-.24,13.13-8.21,25.16-20.72,29.71A31.66,31.66,0,1,1,138.23,210c.14,7.71,12.14,7.74,12,0a44.31,44.31,0,0,0-28.91-41.07c-17.12-6.31-37.16-.58-48.56,13.57A43.59,43.59,0,0,0,115,252.82c20.51-3.73,34.91-22.37,35.27-42.81C150.37,202.28,138.37,202.28,138.23,210Z" transform="translate(-63.05 -60.48)"/><path class="cls-1" d="M244.14,210c-.24,13.13-8.21,25.16-20.72,29.71A31.66,31.66,0,1,1,244.14,210c.14,7.71,12.14,7.74,12,0a44.31,44.31,0,0,0-28.91-41.07c-17.12-6.31-37.16-.58-48.56,13.57a43.59,43.59,0,0,0,42.2,70.31c20.51-3.73,34.91-22.37,35.27-42.81C256.28,202.28,244.28,202.28,244.14,210Z" transform="translate(-63.05 -60.48)"/><path class="cls-1" d="M101.29,109.4l92.79,92.79,13.12,13.12c6.83,6.83,17.44-3.77,10.61-10.61L125,111.91,111.9,98.79c-6.83-6.83-17.44,3.77-10.61,10.61Z" transform="translate(-63.05 -60.48)"/><path class="cls-1" d="M111.9,215.31l92.79-92.79,13.12-13.12C224.65,102.56,214,92,207.2,98.79l-92.79,92.79L101.29,204.7c-6.83,6.83,3.77,17.44,10.61,10.61Z" transform="translate(-63.05 -60.48)"/></svg>