<svg id="Layer_1" data-name="Layer 1" xmlns="http://www.w3.org/2000/svg" viewBox="0 0 395.56 195.67"><defs><style>.cls-1{fill:#fff;}</style></defs><title>perception-white</title><path class="cls-1" d="M79.43,474.57c197.78,220.12,395.56,0,395.56,0S277.21,254.44,79.43,474.57Zm197.78,85.5a85.5,85.5,0,1,1,85.5-85.5A85.5,85.5,0,0,1,277.21,560.07Z" transform="translate(-79.43 -376.73)"/><path class="cls-1" d="M238.9,444.75a118.46,118.46,0,0,0-4.46,26.31v0H213.19a63.64,63.64,0,0,1,3.38-17.37A122.84,122.84,0,0,1,238.9,444.75Z" transform="translate(-79.43 -376.73)"/><path class="cls-1" d="M251.21,533.18a64.2,64.2,0,0,1-32.56-32.51,110.83,110.83,0,0,0,21.31,9.9l0,0A106.06,106.06,0,0,0,251.21,533.18Z" transform="translate(-79.43 -376.73)"/><path class="cls-1" d="M251.2,416a111.94,111.94,0,0,0-10.28,22.35.49.49,0,0,1,0,.11h0a111.71,111.71,0,0,0-22.32,10.24A64.28,64.28,0,0,1,251.2,416Z" transform="translate(-79.43 -376.73)"/><path class="cls-1" d="M335.84,448.61a106,106,0,0,0-22.67-11.18l0,0A111.52,111.52,0,0,0,303.22,416,64.19,64.19,0,0,1,335.84,448.61Z" transform="translate(-79.43 -376.73)"/><path class="cls-1" d="M273.63,410.56v21.33a117.87,117.87,0,0,0-26.84,4.67A120.07,120.07,0,0,1,256.26,414h0A63.58,63.58,0,0,1,273.63,410.56Z" transform="translate(-79.43 -376.73)"/><path class="cls-1" d="M306.89,435.45a101.3,101.3,0,0,0-26.1-3.71V410.56a63.58,63.58,0,0,1,17.37,3.4,0,0,0,0,0,0,0A122.63,122.63,0,0,1,306.89,435.45Z" transform="translate(-79.43 -376.73)"/><path class="cls-1" d="M341.23,471.08H320a117.62,117.62,0,0,0-4.3-25.68,131.16,131.16,0,0,1,22.13,8.2A64,64,0,0,1,341.23,471.08Z" transform="translate(-79.43 -376.73)"/><path class="cls-1" d="M341.22,478.24a63.9,63.9,0,0,1-3.49,17.52h0a126.85,126.85,0,0,1-21.25,8.29,101.66,101.66,0,0,0,3.66-25.82Z" transform="translate(-79.43 -376.73)"/><path class="cls-1" d="M335.76,500.71a64.29,64.29,0,0,1-32.55,32.47,106.37,106.37,0,0,0,10.85-21.61A106,106,0,0,0,335.76,500.71Z" transform="translate(-79.43 -376.73)"/><path class="cls-1" d="M306.17,514.06a129.92,129.92,0,0,1-7.89,21.07h0a63.22,63.22,0,0,1-17.48,3.45v-21A101,101,0,0,0,306.17,514.06Z" transform="translate(-79.43 -376.73)"/><path class="cls-1" d="M273.63,517.43v21.15a63.22,63.22,0,0,1-17.48-3.45A125.85,125.85,0,0,1,247.57,513,118.41,118.41,0,0,0,273.63,517.43Z" transform="translate(-79.43 -376.73)"/><path class="cls-1" d="M216.64,495.62h0a64,64,0,0,1-3.44-17.37h21.09a100.92,100.92,0,0,0,3.86,26.5A120.17,120.17,0,0,1,216.64,495.62Z" transform="translate(-79.43 -376.73)"/><path class="cls-1" d="M312.19,471.08h-31.4V439.79A149.94,149.94,0,0,1,309,443.7,129.52,129.52,0,0,1,312.19,471.08Z" transform="translate(-79.43 -376.73)"/><path class="cls-1" d="M273.63,478.24v32a124.15,124.15,0,0,1-27.72-3.39,145.77,145.77,0,0,1-4.19-28.64Z" transform="translate(-79.43 -376.73)"/><path class="cls-1" d="M273.63,439.68v31.4h-32A124,124,0,0,1,245,443.13,129.31,129.31,0,0,1,273.63,439.68Z" transform="translate(-79.43 -376.73)"/><path class="cls-1" d="M312.07,478.24a149.76,149.76,0,0,1-3.87,28,144.2,144.2,0,0,1-27.41,3.88V478.24Z" transform="translate(-79.43 -376.73)"/></svg>