<svg xmlns="http://www.w3.org/2000/svg" viewBox="0 0 504.69 606.93"><defs><style>.cls-1{fill:#fff;}</style></defs><title>planning-white</title><g id="Layer_2" data-name="Layer 2"><path class="cls-1" d="M283.47,183.06c0-6.61.43-20-5.21-31.06-3.65-7.17-10.06-13.28-20.12-14.89s-40.25,2-53.13,6-43.87,21.73-55.14,33.41-31.8,36.22-42.26,50.71-31.8,53.13-37.83,72.45S47.24,376.17,45.22,418.43s.8,117.12,4.83,143.68,18.51,68.42,31,89.75,35.82,45.48,62,61.58,37.43,25,71.24,25.36,57.84-12.37,64.31-26.35a112.63,112.63,0,0,0,4.89-13.09l-32.18-15.5s-1,12.07-5.23,16.7c-4.61,5-15.93,5.33-15.93,5.33s-11.56,2.71-28-1.71-56.68-29-76-50.71S90.7,597.53,83.86,552.86s-4-77.68-3.62-111.89,9.66-94.18,17.31-116.72,16.9-48.3,31-67.62,27.37-42.66,58-56.75,50.94-19.78,59.07-15.71c7.64,3.82,5.72,7,5.72,11.54C251.29,214.35,283.47,189.67,283.47,183.06Z" transform="translate(-44.56 -136.71)"/><rect class="cls-1" x="206.73" y="46.35" width="32.18" height="147.23"/><rect class="cls-1" x="206.73" y="403.27" width="32.18" height="159.38"/><path class="cls-1" d="M310.34,187.89c0-6.61-.43-20,5.21-31.06,3.65-7.17,10.06-13.28,20.12-14.89s45.49-1.92,58.9-.39c35.22,4,55.54,24.14,66.81,35.81s28.48,36.63,38.94,51.11,25.05,54.33,31.09,73.65S546.57,381,548.58,423.26s-.8,117.12-4.83,143.68-18.51,68.42-31,89.75-35.82,45.48-62,61.58-37.43,25-71.24,25.36-57.84-12.37-64.31-26.35a112.63,112.63,0,0,1-4.89-13.09l32.18-15.5s1,12.07,5.23,16.7c4.61,5,15.93,5.33,15.93,5.33s11.56,2.71,28-1.71,56.68-29,76-50.71,35.42-55.94,42.26-100.62,4-77.68,3.62-111.89-.87-96-5.09-121.55c-3.25-19.67-9.43-46-19.72-67.58s-44.21-62.22-75.67-77.51c-30.29-14.72-53.86-5.88-62-1.81-7.64,3.82-8.59,18.67-8.59,23.19C342.52,219.18,310.34,194.5,310.34,187.89Z" transform="translate(-44.56 -136.71)"/><rect class="cls-1" x="265.78" y="51.18" width="32.18" height="147.23"/><rect class="cls-1" x="265.78" y="400.46" width="32.18" height="167.02"/><path class="cls-1" d="M418.72,363.7V324.25h-76.2v10.87H310.34V324.25H283.47v6H251.29v-6H168.38v38.84h11.27v30.59H168.38v24.55h11.27v30.59H168.38v25.76h11.27v30.59H168.38V544h82.91v-4h32.18v4h26.87v-6.83h32.18V544h76.2V505.77h-5.64V475.18h5.64V449.42h-5.64V418.83h5.64V394.28h-5.64V363.7ZM378.27,508.5H208.83V363.09H378.27Z" transform="translate(-44.56 -136.71)"/><rect class="cls-1" x="123.82" y="226.38" width="11.27" height="30.59"/><rect class="cls-1" x="123.82" y="281.52" width="11.27" height="30.59"/><rect class="cls-1" x="123.82" y="337.87" width="11.27" height="30.59"/><rect class="cls-1" x="206.73" y="187.54" width="32.18" height="6.04"/><rect class="cls-1" x="206.73" y="403.27" width="32.18" height="4.02"/><rect class="cls-1" x="265.78" y="187.54" width="32.18" height="10.87"/><rect class="cls-1" x="265.78" y="400.46" width="32.18" height="6.83"/><rect class="cls-1" x="368.52" y="226.99" width="5.64" height="30.58"/><rect class="cls-1" x="368.52" y="282.12" width="5.64" height="30.59"/><rect class="cls-1" x="368.52" y="338.47" width="5.64" height="30.59"/><path class="cls-1" d="M240.83,391.48V484H346.27V391.48Zm77.87,68.36H268.4V415.68h50.3Z" transform="translate(-44.56 -136.71)"/><rect class="cls-1" x="368.52" y="226.99" width="128.8" height="30.58"/><rect class="cls-1" x="368.52" y="282.12" width="128.8" height="30.59"/><rect class="cls-1" x="368.52" y="338.47" width="128.8" height="30.59"/><rect class="cls-1" x="16.16" y="226.38" width="118.93" height="30.59"/><rect class="cls-1" x="6.3" y="281.52" width="128.79" height="30.59"/><rect class="cls-1" x="6.3" y="337.87" width="128.79" height="30.59"/><rect class="cls-1" x="423.25" y="320.13" width="103.64" height="27.37" transform="translate(96.7 672.17) rotate(-90)"/><rect class="cls-1" x="332.69" y="238.83" width="103.64" height="27.37" transform="translate(87.44 500.31) rotate(-90)"/><rect class="cls-1" x="370.83" y="276.96" width="117.93" height="27.37" transform="translate(815.02 444.58) rotate(180)"/><rect class="cls-1" x="370.83" y="228.46" width="90.56" height="27.37" transform="translate(787.65 347.59) rotate(180)"/><rect class="cls-1" x="412.48" y="206.93" width="70.43" height="27.37" transform="translate(623.76 -363.79) rotate(90)"/><rect class="cls-1" x="409.56" y="535.2" width="103.64" height="27.37" transform="translate(-132.05 873.55) rotate(-90)"/><rect class="cls-1" x="293.06" y="436.62" width="137.45" height="27.37"/><rect class="cls-1" x="389.57" y="602.48" width="87.63" height="29.33" transform="translate(-228.32 913.82) rotate(-90)"/><rect class="cls-1" x="332" y="497.79" width="128.89" height="27.37"/><rect class="cls-1" x="346.43" y="664.64" width="87.63" height="27.37" transform="translate(-332.64 931.86) rotate(-90)"/><rect class="cls-1" x="82.36" y="541.19" width="103.42" height="27.37" transform="translate(-465.37 552.24) rotate(-90)"/><rect class="cls-1" x="16.16" y="442.51" width="156.76" height="27.37"/><rect class="cls-1" x="109.54" y="500.47" width="122.96" height="27.37"/><rect class="cls-1" x="131.38" y="611.79" width="72.79" height="27.37" transform="translate(-502.26 656.54) rotate(-90)"/><rect class="cls-1" x="57.2" y="288.43" width="153.75" height="27.37" transform="translate(-212.6 299.48) rotate(-90)"/><rect class="cls-1" x="135.78" y="274.75" width="128.79" height="27.37" transform="translate(355.79 440.15) rotate(180)"/><rect class="cls-1" x="186.09" y="225.24" width="86.53" height="27.37" transform="translate(414.15 341.15) rotate(180)"/><rect class="cls-1" x="163.05" y="202.2" width="73.45" height="27.37" transform="translate(-60.67 278.95) rotate(-90)"/><circle class="cls-1" cx="339.95" cy="63.98" r="23.34"/><circle class="cls-1" cx="171.01" cy="456.19" r="25.26"/></g></svg>