<svg xmlns="http://www.w3.org/2000/svg" width="112.139" height="130.576" viewBox="0 0 112.139 130.57551"><g fill="#c49a6c"><path d="M15.156 127.398c-1.44 2.113-3.588 3.168-6.443 3.168-2.592 0-4.703-.9-6.336-2.7C.793 126.09 0 123.895 0 121.28c0-2.618.793-4.813 2.377-6.59 1.633-1.8 3.805-2.7 6.516-2.7 2.713 0 4.8 1.068 6.264 3.205v-2.916h2.7v18h-2.7v-2.882zm-6.084.72c1.945 0 3.48-.67 4.61-2.015 1.08-1.273 1.618-2.88 1.618-4.824 0-1.946-.54-3.554-1.62-4.825-1.128-1.344-2.663-2.016-4.608-2.016-1.92 0-3.48.67-4.68 2.015-1.127 1.27-1.69 2.88-1.69 4.824 0 1.942.563 3.55 1.69 4.823 1.2 1.344 2.76 2.016 4.68 2.016M32.22 117.104c-.24-1.873-1.746-2.81-4.518-2.81-2.773 0-4.158.864-4.158 2.593 0 .72.293 1.266.88 1.64.59.37 1.327.677 2.216.917a42.5 42.5 0 0 0 2.898.666c1.043.203 2.01.492 2.896.863.89.373 1.627.883 2.215 1.53.587.647.882 1.536.882 2.665 0 1.752-.662 3.09-1.98 4.014-1.32.924-3.11 1.385-5.365 1.385-2.398 0-4.307-.6-5.723-1.8-1.297-1.056-1.992-2.437-2.088-4.14h2.807c.168 1.656 1.104 2.77 2.81 3.348.624.193 1.24.29 1.853.29s1.182-.038 1.71-.11a6.882 6.882 0 0 0 1.548-.395c1.152-.457 1.73-1.236 1.73-2.34 0-.744-.294-1.314-.882-1.71-.588-.398-1.328-.722-2.213-.974a36.46 36.46 0 0 0-2.9-.684 15.674 15.674 0 0 1-2.9-.846c-.886-.36-1.624-.852-2.212-1.477-.588-.624-.883-1.49-.883-2.593 0-1.63.594-2.898 1.783-3.797 1.188-.9 2.945-1.352 5.273-1.352 2.208 0 3.948.53 5.222 1.584 1.055.89 1.668 2.064 1.836 3.53H32.22zM46.404 128.12c1.152 0 2.172-.325 3.06-.974a5.59 5.59 0 0 0 1.944-2.52h2.916c-.553 1.777-1.56 3.203-3.023 4.283-1.536 1.103-3.36 1.655-5.47 1.655-2.643 0-4.79-.9-6.445-2.7-1.61-1.75-2.412-3.948-2.412-6.587 0-2.64.803-4.836 2.412-6.588 1.656-1.8 3.803-2.7 6.445-2.7 2.11 0 3.934.552 5.47 1.655 1.464 1.08 2.472 2.508 3.024 4.283h-2.916a5.628 5.628 0 0 0-1.943-2.52c-.89-.648-1.908-.97-3.06-.97-1.15 0-2.132.18-2.935.538a5.842 5.842 0 0 0-2.033 1.477c-1.178 1.295-1.764 2.904-1.764 4.824s.586 3.527 1.764 4.824c1.2 1.347 2.856 2.02 4.967 2.02M66.765 127.766c2.32-.7 3.695-2.168 4.125-4.402l2.826-.852c-.127 1.742-.693 3.29-1.7 4.646-1.007 1.357-2.534 2.346-4.58 2.96-2.597.784-4.97.56-7.12-.673-2.092-1.197-3.517-3.06-4.28-5.59-.77-2.55-.645-4.88.374-6.992 1.088-2.21 2.92-3.7 5.494-4.477 2.572-.777 4.924-.545 7.053.693 2.014 1.196 3.406 3.07 4.176 5.62l.312 1.035-14.443 4.354c.662 1.528 1.688 2.647 3.08 3.356 1.42.726 2.982.83 4.683.32M62.61 114.73c-1.587.48-2.77 1.373-3.552 2.688-.727 1.246-.977 2.662-.75 4.25l11.72-3.535c-.687-1.447-1.68-2.488-2.974-3.125-1.38-.662-2.86-.756-4.445-.278M78.622 112.28v2.806A9.035 9.035 0 0 1 81 112.89c.935-.598 2.003-.9 3.202-.9 1.2 0 2.232.17 3.098.505.863.336 1.62.84 2.268 1.512 1.488 1.465 2.232 3.398 2.232 5.797v10.477h-2.7v-10.403c0-1.656-.468-2.975-1.405-3.96-.936-.983-2.148-1.476-3.635-1.476-1.514 0-2.797.505-3.854 1.513-1.057 1.03-1.584 2.352-1.584 3.96v10.368h-2.7v-18h2.7zM109.44 127.398c-1.44 2.113-3.59 3.168-6.444 3.168-2.594 0-4.705-.9-6.336-2.7-1.584-1.776-2.377-3.972-2.377-6.587 0-2.618.793-4.813 2.377-6.59 1.63-1.8 3.803-2.7 6.516-2.7 2.71 0 4.8 1.068 6.264 3.205v-10.117h2.7v25.2h-2.7v-2.88zm-6.085.72c1.943 0 3.48-.67 4.607-2.015 1.08-1.273 1.62-2.88 1.62-4.824 0-1.946-.54-3.554-1.62-4.825-1.13-1.344-2.664-2.016-4.607-2.016-1.92 0-3.48.67-4.68 2.015-1.13 1.27-1.693 2.88-1.693 4.824 0 1.942.564 3.55 1.693 4.823 1.2 1.344 2.76 2.016 4.68 2.016"/></g><path d="M82.298 65.472c-2.756-1.282-4.28-1.405-5.934-.722L21.56 89.256c-1.69.797-2.868 2.016-2.868 5.58v7.312L90.357 69.56a1.8 1.8 0 0 0 .098-.042s-5.876-2.983-8.157-4.046z" fill="#f3bb37"/><path d="M93.448 67.48l-.012-8.506c0-1.863-1.115-3.576-2.904-4.464L23.567 21.334v8.482c0 1.864 1.115 3.577 2.904 4.465l66.978 33.2z" fill="#f09b36"/><path d="M93.433 52.204l-71.84-35.792c-1.787-.886-2.903-2.6-2.903-4.463V3.446L90.532 39.12c1.79.887 2.9 2.6 2.9 4.463v8.62" fill="#d5562b"/><path d="M90.593 23.762L42.667 0v8.322c0 1.824 1.09 3.5 2.84 4.368l47.926 23.858c.004-1.703 0-4.653 0-8.417 0-1.822-1.09-3.5-2.84-4.368" fill="#b55232"/></svg>