<svg xmlns="http://www.w3.org/2000/svg" viewBox="0 0 413.33334 394.66666" height="394.667" width="413.333"><g fill-rule="evenodd"><path d="M104.956 295.6h206.552V.522H104.956z" fill="#ee293d"/><path d="M206.985 89.6c-13.257 0-26.01 2.185-37.9 6.23l-14.342-24.66c-.076-.214-.196-.477-.064-.703.15-.25.143-.358.952-.358.807-.005 5.895.223 6.223.258.46.048.82.245.873.953.053.72.177 4.46.177 4.745-.02.73.963 1.168 1.346.1.445-1.257 1.233-3.26 1.354-3.646.284-.87.792-.63 1.83-.015l3.837 2.128c.218.12.307.294.12 1.166-.174.89-.73 4.033-.84 4.45-.12.42-.165.686-1.03.51-.863-.172-3.423-.776-3.693-.776-.286.012-.922.035-.78.832.984 2.168 3.302 3.805 5.502 4.456 3.707 1.108 7.545-.187 9.886-3.223 1.247-1.77 1.843-3.85 1.763-6.11-.033-.373-.09-.8-.46-1.004-.164-.057-.373-.108-.516.057-.556.628-.82 1.434-1.45 2.04-.802.75-2.005.978-3.078.707-2.024-.72-2.71-2.876-2.732-4.905.063-1.167.48-2.252 1.487-2.96.83-.638 2.222-.704 3.117-.175.788.32 1.366 1.127 2.265 1.14.33.01.735-.507.307-1.024-.677-.84-3.175-3.103-3.428-6.276-.213-2.853.824-5.364 2.385-6.74.134-.133.308-.257.704-.128 2.415.82 4.604 3.655 5.01 6.45.405 2.8-.753 5.39-.922 5.79-.16.41.035.936.396 1.016.34.035.592-.17.797-.44.75-1.035 1.545-2.503 2.965-2.62 1.336-.173 2.462.464 3.228 1.55.863 1.41 1.322 3.495.57 5.12-.46 1.095-1.586 1.785-2.724 1.817-1.3.137-2.18-.784-3.163-1.426-.186-.13-.436-.067-.592.053-.413.418-.106 1.05.044 1.486 1.26 3.17 4.46 5.715 7.933 5.79 3.99.245 7.688-1.967 9.414-5.545.46-1.066.887-2.178.824-3.442 0-.2-.164-.413-.364-.512-.805-.145-1.33.593-1.945.972l-2.506 1.883c-.128.07-.337.108-.497.036-1.216-1.38-2.31-2.89-3.384-4.362-.107-.17-.15-.413-.03-.588.947-1.496 2.02-2.907 3.092-4.34.152-.215.36-.405.624-.288 1.5.96 2.874 2.18 4.42 2.98.21.1 1.157-.132.71-1-.448-.868-2.033-3.133-2.327-3.66-.298-.525-.672-.885-.133-1.26.533-.365 4.42-3.067 4.55-3.17a.362.362 0 0 1 .405 0c.12.1 4.014 2.806 4.55 3.17.524.375.163.735-.13 1.26-.298.525-1.884 2.792-2.334 3.66-.456.868.505 1.1.715 1 1.54-.8 2.92-2.02 4.406-2.98.264-.117.48.075.64.29 1.07 1.43 2.14 2.842 3.09 4.338.113.175.077.42-.03.588-1.072 1.473-2.168 2.983-3.392 4.363-.155.073-.36.037-.503-.035l-2.493-1.883c-.613-.38-1.148-1.117-1.95-.97-.195.097-.36.31-.36.51-.066 1.265.36 2.38.82 3.443a9.788 9.788 0 0 0 9.418 5.546c3.46-.075 6.673-2.62 7.933-5.79.152-.437.45-1.07.044-1.487-.164-.12-.405-.183-.6-.054-.974.64-1.853 1.562-3.152 1.425-1.148-.032-2.28-.722-2.738-1.818-.743-1.624-.284-3.708.584-5.118.753-1.088 1.878-1.724 3.227-1.55 1.412.115 2.222 1.583 2.952 2.617.218.27.458.476.81.44.36-.08.556-.604.39-1.015-.173-.4-1.33-2.99-.915-5.79.405-2.797 2.58-5.63 5.008-6.45.38-.13.556-.005.698.128 1.555 1.375 2.596 3.887 2.38 6.74-.243 3.173-2.735 5.435-3.425 6.276-.414.516-.023 1.033.316 1.024.895-.013 1.465-.82 2.254-1.14.9-.53 2.296-.463 3.115.175 1.02.706 1.433 1.793 1.487 2.96-.02 2.03-.708 4.184-2.734 4.905-1.06.27-2.274.044-3.072-.708-.636-.605-.897-1.41-1.453-2.04-.144-.164-.34-.113-.514-.056-.364.204-.417.632-.462 1.005-.075 2.257.518 4.34 1.763 6.11 2.352 3.035 6.188 4.33 9.9 3.222 2.2-.65 4.504-2.288 5.502-4.456.142-.797-.503-.82-.78-.832-.27 0-2.843.605-3.694.775-.865.176-.91-.09-1.027-.51-.118-.418-.666-3.56-.854-4.45-.187-.873-.1-1.047.133-1.167l3.835-2.128c1.03-.614 1.54-.854 1.816.014.13.385.91 2.39 1.367 3.644.385 1.068 1.36.632 1.35-.1 0-.283.108-4.02.16-4.743.067-.707.42-.903.887-.952.33-.036 5.404-.263 6.213-.26.824 0 .81.11.95.36.133.225.026.488-.063.7l-14.33 24.663C233 91.786 220.255 89.6 206.985 89.6" fill="#fcd213"/><path d="M206.985 43.77c3.61 0 6.53 2.925 6.53 6.53 0 3.597-2.92 6.517-6.53 6.517a6.52 6.52 0 0 1-6.517-6.516c0-3.605 2.92-6.53 6.517-6.53M156.18 54.49a5.22 5.22 0 0 1 5.223 5.222 5.217 5.217 0 0 1-5.223 5.216 5.218 5.218 0 0 1-5.217-5.216c0-2.88 2.337-5.22 5.217-5.223M162.425 41.22a5.22 5.22 0 0 1 5.222 5.22 5.216 5.216 0 0 1-5.222 5.215 5.216 5.216 0 0 1-5.217-5.214 5.22 5.22 0 0 1 5.217-5.22M177.26 36.795a5.218 5.218 0 0 1 0 10.435 5.218 5.218 0 0 1 0-10.435M191.832 43.297a5.22 5.22 0 0 1 0 10.44 5.223 5.223 0 0 1-5.217-5.217c0-2.88 2.342-5.22 5.217-5.223M258.724 54.49a5.225 5.225 0 0 0-5.227 5.222 5.222 5.222 0 0 0 5.227 5.216 5.214 5.214 0 0 0 5.212-5.216 5.22 5.22 0 0 0-5.212-5.223M252.48 41.22a5.218 5.218 0 0 0 0 10.435 5.218 5.218 0 0 0 0-10.435M237.643 36.795a5.218 5.218 0 0 0 0 10.435 5.216 5.216 0 0 0 5.217-5.214 5.22 5.22 0 0 0-5.217-5.22M223.072 43.297a5.225 5.225 0 0 0-5.225 5.223 5.218 5.218 0 0 0 10.44 0c-.002-2.88-2.34-5.22-5.215-5.223M210.65 24.736l-1.662 6.183v.04c1.727-.433 3.437-1.033 5.173-1.524v7.3c-1.735-.497-3.445-1.09-5.172-1.53v.035l1.705 6.4c-1.126-.496-2.382-.75-3.708-.75a9.29 9.29 0 0 0-3.71.75l1.708-6.4v-.035c-1.715.44-3.42 1.034-5.16 1.532v-7.3c1.74.488 3.445 1.09 5.16 1.522v-.04l-1.648-6.184h7.314M197.833 115.787c2.506-1.202 4.93-2.694 7.434-3.904l3.658 5.71-.31.158-36.422 19.123c-.22-6.17-1.604-12.16-6.478-16.528-3.088-2.462-7.456-3.957-11.618-2.577-2.38.872-4.933 2.943-5.186 5.38-.275 1.823.467 3.39 1.42 4.76 2.226-.92 4.99-1.57 7.617-1.032 3.69.672 7.377 3.5 8.72 6.78 1.977 4.513.494 9.73-2.827 13.233-3.983 3.943-10.117 5.186-15.727 3.583-6.628-1.937-10.98-8.293-11.257-14.426-.832-11.584 7.555-22.098 18.803-26.808 8.857-3.92 21.84-5.236 30.995-1.052 4.126 1.62 7.942 4.38 11.178 7.6zm-32.176-3.004c6.02 2.212 10.72 8.044 12.264 13.457l13.223-6.932c-6.33-6.597-16.324-8.627-25.486-6.525zm-21.366 17.093c-1.122 3.78-.685 8.32 1.843 11.405 2.2 2.663 5.654 3.892 9.187 3.055 2.324-.704 4.345-2.627 4.78-4.822.375-2.1-.364-4.117-2.153-5.404-1.603-1.207-4.224-1.345-6.076-.513-1.134.562-1.97 1.684-2.613 2.55-2.62-1.31-4.26-3.724-4.966-6.27M261.817 113.276c2.19 4.233 1.252 9.69 1.41 14.57l-2.202 1.162-28.706 15.047v.004-14.772c-.156-1.905-.437-3.84-2.263-5.132-2.345-1.74-6.222-.672-8.497.476v32.237-.085l17.805-9.058c5.31-2.635 12.623-3.838 18.072-.672 5.43 2.86 7.087 8.208 6.908 13.733l-.18 13.18-23.99 12.593-.12.04c8.23 2.695 17.417 6.42 21.67 14.412 4.162 8.067 1.384 18.947 2.86 27.805.687 4.48 2.77 8.54 5.752 12.154l.24-.125 7.23-3.8 3.638 5.786-25.437 13.355-11.372 5.974c-6.72-7.772-12.416-16.053-12.67-26.31l-.177-8.44.12-20.29c-.246-4.008-.374-8.245-4.346-10.66-1.757-1.032-4.224-1.03-6.004-.16v26.036c-12.02.26-23.536 3.116-31.643 11.797-2.252 2.332-4.094 4.807-5.77 7.318-5.072-2.323-12.507-2.803-17.622-.195-4.14 2.084-6.904 5.974-6.21 10.372.65 4.71 5.992 8.325 10.737 9.286 11.004 1.932 23.58 0 30.03-9.108l.953-1.718c-3.814-2.69-5.307-6.864-4.443-11.182.868-4.674 5.823-9.054 10.95-9.856 5.423-1.025 10.755.525 14.366 4.415 3.668 3.676 4.38 9.81 2.345 14.414-4.846 11.128-18.01 16.113-29.597 18.544-14.584 2.956-30.332 2.004-43.317-3.383-8.207-3.535-15.573-11.02-16.135-19.39-.952-10.462 5.734-19.373 15.422-24.678 6.08-3.33 12.984-5.35 20.204-6.224v-26.063h-20.178c-.06-7.98 3.308-16.282 11.815-19.844 2.626-.952 5.404-1.54 8.364-1.624v-22.19l11.985-6.126 38.297-20.103 15.655-8.213c5.088-2.608 12.864-4.05 18.25-.965 2.435 1.204 4.754 3.364 5.8 5.656zm-14.03-.61c-5.422.557-9.758 3.558-14.315 5.858 6.26 2.213 6.508 8.584 6.33 13.996l16.06-8.435c-.085-2.938.435-6.152-1.265-8.565-1.536-2.1-4.042-2.996-6.81-2.853zm-33.795 48.014v-32.05l-10.288 5.367v32.06zm-17.725 40.964v-63.692l-16.65 8.84-.33.107v24.847c-4.122.116-8.262-.338-11.872.837-3.334 1.068-6.23 4.237-6.57 7.372h18.443v30.52zm52.45-49.715c-5.8.725-10.393 4.183-15.353 6.597 3.79 1.344 6.157 4.954 6.157 8.594l.028 12.083.06-.04 17.22-9.023.14-6.103c-.117-3.165.41-6.58-1.285-9.188-1.602-2.133-4.166-3.166-6.966-2.92zm-27.157 12.667v24.136l10.456-5.582.084-10.593c-.155-2.712.36-5.716-1.456-7.817-2.216-2.55-6.653-1.603-9.084-.143zm-7.568 3.82l-10.288 5.372v31.815l-13.91 7.206c8.427.703 16.58 2.83 24.197 5.155zm17.36 22.646l-.08.137c5.845 2.493 7.7 8.213 7.973 13.65v22.195l.12 7.4c.156 7.122 2.916 13.434 7.567 18.82l16.737-8.796c-4.163-5.663-6.762-11.93-6.975-19.08l-.023-12.438c-.156-3.223-.28-6.455-1.8-9.145-5.01-8.12-14.915-10.222-23.52-12.744zm-35.024 29.26c-13.043-2.546-28.18-2.242-39.427 3.616-7.424 3.693-13.536 10.593-13.13 18.58 0 6.34 5.45 11.78 11.41 14.6-1.613-2.18-2.228-4.736-2.228-7.513-.06-3.304 1.167-5.94 3.023-8.602 5.952-7.112 15.7-9.445 25.218-7.424 4.158-5.663 10.635-10.585 17.387-12.757zm16.596 15.074c-2.784-.33-5.37.56-7.007 2.636-1.26 1.664-1.598 4.352-.397 6.143 1.024 2.012 3.335 3 5.587 3.223-.774 3.78-3.436 6.98-6.26 9.836 3.91-1.656 7.952-3.508 10.818-7.06 2.72-3.196 4.595-7.985 2.19-11.78-1.236-1.593-2.964-2.715-4.93-3" fill="#fcd213"/><path d="M140.14 394.147c-5.75-1.265-8.956-4.478-11.257-7.576-1.032-1.397-16.04-24.136-20.944-31.57v28.08c0 4.07-.068 6.963 3.31 9.215v.213H99.918v-.213c3.374-2.252 3.374-5.146 3.374-9.215v-29.807c0-4.06-.853-6.107-4.165-8.29v-.212h11.92v.072l24.51 37.428v-28.142c0-4.06.068-6.962-3.31-9.144v-.213h11.208v.214c-3.312 2.18-3.312 5.084-3.312 9.144v40.02M90.983 367.99c0 14.76-10.737 25.463-23.388 25.463-12.585 0-23.206-10.274-23.206-25.107 0-13.747 10.49-25.25 23.837-24.884 13.35-.07 22.756 11.494 22.756 24.528zm-38.03.48c0 10.81 5.33 20.638 15.015 20.638 8.917 0 14.415-9.312 14.415-20.637 0-11.618-5.592-20.957-14.53-20.957-9.095 0-14.9 9.036-14.9 20.957M183.864 388.45v-11.486c0-3.34-.42-6.588-3.68-7.897v-.214h11.515v22.925c-3.625.927-10.828 1.977-14.085 1.897-2.04-.054-24.787.018-24.663-24.572.116-22.4 18.867-25.054 23.163-25.186 4.12-.126 10.046.48 13.958 2.35v9.116h-.217c-3.032-4.443-6.384-7.55-13.16-7.55-4.835 0-15.112 4.55-15.112 21.475 0 3.952.85 14.84 9.86 18.848 1.72.765 7.808 2.528 12.42.293M405.007 388.45v-11.486c0-3.34-.418-6.588-3.686-7.897v-.214h11.523v22.925c-3.624.927-10.827 1.977-14.086 1.897-2.048-.054-24.786.018-24.66-24.572.115-22.4 18.864-25.054 23.155-25.186 4.123-.126 10.052.48 13.96 2.35v9.116H411c-3.037-4.443-6.385-7.55-13.16-7.55-4.843 0-15.11 4.55-15.11 21.475 0 3.952.847 14.84 9.858 18.848 1.717.765 7.807 2.528 12.42.293M203.96 380.08c2.816 5.048 7.912 9.527 12.827 9.117 4.99-.418 8.316-3.97 8.316-9.286 0-10.532-20.455-8.564-20.286-23.253.128-10.49 9.504-13.364 15.75-13.364 2.693 0 6.9.624 9.512 1.665l-.3 8.662-.083.045c-3.766-5.494-6.224-6.562-10.194-6.562-3.598 0-7.283 3.09-7.283 7.256 0 11.074 20.597 8.03 20.597 24.607 0 9.143-8.05 14.352-16.84 14.352-1.424 0-7.22-.526-11.05-2.457l-1.067-10.74.1-.043M278.952 378.264c0 5.6-3.228 9.678-8.107 12.01-5.092 2.475-10.844 2.253-16.3 2.253h-11.582v-.223c3.64-1.38 3.204-6.695 3.204-10.033v-27.403c0-3.276.506-8.59-3.206-9.972l.003-.214h16.646c9.61 0 15.566 3.857 15.566 10.33 0 4.878-3.18 7.94-10.12 10.434 4.868.854 13.896 3.045 13.896 12.82zM253.84 348.99v39.486c6.22 1.175 16.89.17 16.743-10.336-.086-5.735-4.154-10.034-14.02-10.06l1.41-3.562c3.15-.748 9.027-1.923 9.027-9.01 0-6.153-8.045-8.183-13.16-6.517M318.115 353.033h-.206c-1.666-2.155-3.554-6.02-17.46-4.202v15.11h13.693v7.246h-.214c-1.158-2.1-4.213-3.267-6.455-3.267l-7.024-.002v20.405c17.54 2.093 20.273-4.762 21.545-6.47h.374l-3.286 10.575h-30.08v-.213c3.727-1.932 3.69-5.902 3.69-9.16l.002-28.883c0-3.33.008-7.852-3.693-9.232v-.214h29.112v8.307M372.788 392.428h-6.545c-2.44-.124-5.618-.035-9.543-4.87-3.927-4.834-12.84-17.894-12.84-17.894l1.79-3.34c4.667-1.228 8.842-3.835 8.842-10.04 0-4.693-4.132-7.525-8.992-7.703-1.736-.07-2.77-.087-4.435.206v33.493c.15 3.676-.632 8.626 3.072 9.935v.213H329.99v-.213c3.686-1.762 2.965-6.42 3.187-9.936V354.6c-.222-3.615.508-8.28-3.186-9.66v-.214h17.254c10.623 0 15.304 5.076 15.304 11.663 0 6.382-4.985 9.784-11.048 11.466 5.556 7.612 15.25 22.213 21.28 24.458l.008.114M43.512 392.224v.222h-7.465c-3.557 0-6.398-1.513-8.765-4.754L13.31 366.868l11.804-12.704c3.632-3.9 5.066-7.62.03-9.26v-.213h13.752v.07l-18.17 19.837c5.572 7.845 16.038 24.84 22.786 27.627" fill="#fff"/><path d="M3.69 354.848c0-3.267.43-8.564-3.27-9.944v-.213h14.282v.214c-3.704 1.31-3.268 6.678-3.268 9.945v27.358c0 3.338-.437 8.645 3.268 10.016v.222H.422v-.222c3.698-1.37 3.267-6.748 3.267-10.016v-27.36" fill="#fff"/></g></svg>